<?xml version="1.0" standalone="no"?>
<!DOCTYPE svg PUBLIC "-//W3C//DTD SVG 1.1//EN" "http://www.w3.org/Graphics/SVG/1.1/DTD/svg11.dtd" >
<svg xmlns="http://www.w3.org/2000/svg">
<metadata></metadata>
<defs>
<font id="frankfurter_medium_plainRg" horiz-adv-x="819" >
<font-face units-per-em="2048" ascent="1638" descent="-410" />
<missing-glyph horiz-adv-x="532" />
<glyph horiz-adv-x="2048" />
<glyph horiz-adv-x="2048" />
<glyph unicode="&#xd;" horiz-adv-x="2048" />
<glyph unicode=" "  horiz-adv-x="532" />
<glyph unicode="&#x09;" horiz-adv-x="532" />
<glyph unicode="&#xa0;" horiz-adv-x="532" />
<glyph unicode="!" horiz-adv-x="600" d="M123 158q0 73 52 124.5t126 51.5q73 0 124.5 -51t51.5 -125t-51.5 -126t-124.5 -52t-125.5 52t-52.5 126zM158 575v31v588v33q2 72 40.5 115.5t102.5 43.5t103.5 -44t39.5 -115v-33v-588v-31q-1 -73 -39.5 -116t-103.5 -43t-104 43.5t-39 115.5z" />
<glyph unicode="&#x22;" horiz-adv-x="882" d="M123 1253q0 54 44 97t101 43q54 0 96 -39.5t42 -93.5q0 -16 -17 -76l-51 -197q-19 -70 -34.5 -95.5t-39.5 -25.5t-39.5 26t-36.5 99l-53 201q-12 44 -12 61zM477 1253q0 54 44.5 97t101.5 43q56 0 96.5 -39.5t40.5 -93.5q0 -16 -17 -76l-51 -197q-19 -70 -34.5 -95.5 t-39.5 -25.5t-39 25.5t-36 99.5l-54 201q-12 44 -12 61z" />
<glyph unicode="#" d="M68 0v1366h684v-1366h-684zM82 14h655v1338h-655v-1338z" />
<glyph unicode="$" horiz-adv-x="1122" d="M61 322q0 68 41.5 112.5t104.5 44.5q67 0 149 -65q94 -78 132.5 -98.5t93.5 -20.5q69 0 115 43t46 106q0 65 -50.5 105.5t-166.5 68.5l-168 41q-124 31 -196 120t-72 212q0 91 36.5 170.5t102.5 130.5q58 45 166 88q2 48 19 90q20 37 58 59.5t81 22.5q66 0 108 -43 t48 -118l34 -13q118 -37 179 -90q77 -71 77 -149q0 -61 -40.5 -105.5t-96.5 -44.5q-46 0 -88 31q-32 24 -69 55q-75 58 -152 58q-65 0 -107.5 -35t-42.5 -90q0 -65 76 -99q17 -9 139 -39q233 -52 338 -154.5t105 -277.5q0 -156 -96 -276t-246 -152v-18q-3 -56 -12.5 -84.5 t-32.5 -50.5q-48 -45 -113 -45q-74 0 -114.5 49.5t-40.5 138.5v4v6q-129 42 -191 84q-154 100 -154 228z" />
<glyph unicode="%" horiz-adv-x="1544" d="M96 1065q0 129 91.5 221t220.5 92q130 0 221.5 -91t91.5 -220q0 -130 -91 -221.5t-220 -91.5q-130 0 -222 91t-92 220zM283 1067q0 -54 36 -90.5t89 -36.5q52 0 88 36t36 89t-36 90t-88 37t-88.5 -37t-36.5 -88zM401 59q0 31 25 93l12 24l502 1077q34 72 61.5 99.5 t65.5 27.5q36 0 57 -20t21 -55q0 -36 -25 -95l-8 -14l-506 -1087l-12 -27q-47 -100 -107 -100q-34 0 -60 23t-26 54zM821 301q0 129 92 220t220 91q131 0 223 -91t92 -220q0 -131 -91 -222t-222 -91q-129 0 -221.5 91.5t-92.5 221.5zM1008 303q0 -54 36.5 -91.5t90.5 -37.5 q52 0 88.5 37t36.5 90t-36.5 89t-90.5 36q-51 0 -88 -36t-37 -87z" />
<glyph unicode="&#x26;" horiz-adv-x="1241" d="M61 459q0 109 40.5 190.5t127.5 147.5q-77 95 -77 217q0 99 58.5 187.5t157 142t207.5 53.5q95 0 180.5 -40t147.5 -114q88 -110 88 -203q0 -56 -39.5 -95.5t-95.5 -39.5q-62 0 -102 49q-11 13 -35 74q-39 98 -139 98q-58 0 -101 -39t-43 -92q0 -22 5 -35.5t24 -39.5 q26 -37 37 -48l334 -337q22 85 52 119t87 34q63 0 103 -48.5t40 -125.5q0 -41 -9.5 -76t-37.5 -100l-8 -21l61 -59l21 -20q53 -53 53 -109q0 -59 -40.5 -100t-100.5 -41q-51 0 -105 51l-22 20l-25 25q-66 -56 -153.5 -86.5t-180.5 -30.5q-141 0 -258.5 65.5t-184.5 178.5 t-67 248zM348 453q0 -94 63.5 -157t157.5 -63q80 0 144 50l-305 317q-33 -33 -46.5 -65.5t-13.5 -81.5z" />
<glyph unicode="'" horiz-adv-x="528" d="M123 1253q0 54 44.5 97t100.5 43t97 -39.5t41 -93.5q0 -15 -15 -76l-53 -197q-19 -70 -34 -95.5t-38 -25.5q-25 0 -41.5 26.5t-36.5 98.5l-53 201q-12 44 -12 61z" />
<glyph unicode="(" horiz-adv-x="913" d="M150 702q0 161 69 342t176 304q93 102 213 180q80 51 137 51t99.5 -42.5t42.5 -102.5q0 -50 -24 -82t-85 -66q-154 -90 -246 -255.5t-92 -356.5q0 -190 92 -352.5t250 -253.5q54 -32 78.5 -64.5t24.5 -73.5q0 -64 -42 -108.5t-102 -44.5q-71 0 -198 98 q-192 145 -292.5 356.5t-100.5 470.5z" />
<glyph unicode=")" horiz-adv-x="913" d="M27 -78q0 50 23.5 82t84.5 66q154 90 246 255.5t92 356.5q0 190 -92.5 352.5t-249.5 253.5q-54 32 -78 64t-24 73q0 65 41.5 109.5t101.5 44.5q72 0 199 -98q192 -145 292.5 -356.5t100.5 -471.5q0 -161 -69.5 -341t-178.5 -302q-83 -99 -211 -182q-80 -51 -137 -51 q-58 0 -99.5 42.5t-41.5 102.5z" />
<glyph unicode="*" horiz-adv-x="890" d="M117 1126q0 38 22 63t56 25q22 0 49 -10l118 -43v146q0 34 23.5 56.5t60.5 22.5t60.5 -22.5t23.5 -56.5v-146l117 43q27 10 51 10q32 0 55 -25.5t23 -62.5q0 -31 -16.5 -49.5t-54.5 -32.5l-113 -40l76 -101q24 -34 24 -69q0 -34 -25 -58t-59 -24q-48 0 -78 41l-84 116 l-86 -116q-30 -41 -75 -41q-35 0 -60.5 24t-25.5 58q0 37 26 69l74 101l-113 40q-38 13 -53.5 32t-15.5 50z" />
<glyph unicode="+" d="M68 0v1366h684v-1366h-684zM82 14h655v1338h-655v-1338z" />
<glyph unicode="," horiz-adv-x="575" d="M111 152q0 72 52.5 125t125.5 53q72 0 125 -51t53 -123q0 -35 -23 -99l-65 -178q-19 -48 -39.5 -68t-52.5 -20q-34 0 -60 24.5t-26 55.5q0 20 16 70l16 39l-12 6q-110 54 -110 166z" />
<glyph unicode="-" horiz-adv-x="751" d="M137 541q0 61 42 99t110 38h30h111h31q69 -1 110 -38t41 -97q0 -61 -41.5 -99t-109.5 -38h-17h-125h-18q-77 0 -120.5 36t-43.5 99z" />
<glyph unicode="." horiz-adv-x="573" d="M111 158q0 74 51.5 125t124.5 51q74 0 126 -51.5t52 -124.5q0 -74 -52.5 -126t-125.5 -52t-124.5 52t-51.5 126z" />
<glyph unicode="/" horiz-adv-x="702" d="M16 -104q0 17 9 49l8 28l393 1473l8 29q30 108 125 108q53 0 89 -35.5t36 -87.5q0 -27 -6 -51l-4 -14l-398 -1485l-8 -31q-30 -106 -127 -106q-53 0 -89 35.5t-36 87.5z" />
<glyph unicode="0" horiz-adv-x="1529" d="M61 684q0 190 94.5 352t256 256t350.5 94q144 0 275 -55.5t225 -150t150 -224t56 -272.5t-55.5 -273.5t-149.5 -225t-224 -150t-273 -55.5t-273.5 55.5t-225 150t-150.5 225t-56 273.5zM371 688q0 -166 114.5 -281.5t278.5 -115.5q163 0 277 115t114 278q0 161 -115 276 t-278 115q-160 0 -275.5 -114t-115.5 -273z" />
<glyph unicode="1" horiz-adv-x="675" d="M-27 1223q0 63 44 103t116 40h31h184q176 0 176 -211v-958v-35q0 -81 -42 -128.5t-113 -47.5q-70 0 -114 49t-44 127v35v880l-47 2h-31q-73 0 -116.5 39.5t-43.5 104.5z" />
<glyph unicode="2" horiz-adv-x="1101" d="M61 901q0 131 65 242.5t175.5 177t239.5 65.5q207 0 349 -144t142 -353q0 -191 -133 -318l-299 -284h248h33q73 -1 116 -40t43 -104q0 -64 -44 -103.5t-115 -39.5h-33h-559q-11 0 -35 4l-74 16q-38 13 -64 49.5t-26 75.5q0 25 16.5 61.5t36.5 55.5l519 510q59 59 59 129 q0 66 -52.5 118t-121.5 52q-72 0 -122 -52t-50 -126l2 -37q0 -66 -45 -110t-111 -44q-73 0 -116.5 54t-43.5 145z" />
<glyph unicode="3" horiz-adv-x="1122" d="M47 455q0 75 46.5 124.5t117.5 49.5q64 0 107 -36.5t49 -96.5l2 -39q6 -71 60 -120.5t126 -49.5q75 0 129.5 52.5t54.5 123.5q0 61 -42.5 114t-104.5 74q-47 13 -57 17.5t-21 15.5q-25 25 -25 74q0 67 46 88l51 26q29 15 47 42.5t18 58.5q0 43 -31.5 74.5t-72.5 31.5 q-77 0 -111 -102q-20 -53 -52 -75.5t-87 -22.5q-72 0 -117 46t-45 119q0 51 29.5 109.5t83.5 112.5q120 120 293 120q110 0 207.5 -52t156 -140.5t58.5 -187.5q0 -113 -89 -215q76 -50 103 -86q38 -44 61 -109.5t23 -128.5q0 -96 -41.5 -185.5t-110 -155.5t-162 -106 t-192.5 -40q-131 0 -249 66t-188.5 176t-70.5 233z" />
<glyph unicode="4" horiz-adv-x="1243" d="M68 463v127q0 27 15 65.5t36 65.5l24 31l340 477l21 28q37 57 78 83t96 26h45h137q60 0 86 -8t49 -33q41 -44 41 -139v-619h17q80 0 125 -38t45 -105q0 -38 -20.5 -73t-51.5 -52q-40 -18 -115 -18v-84v-35q-2 -80 -44.5 -128t-112.5 -48t-113 49t-43 127v35v84h-485 q-20 0 -74 16q-96 24 -96 166zM365 567h358v510z" />
<glyph unicode="5" horiz-adv-x="1089" d="M47 332q0 64 43.5 107.5t108.5 43.5q60 0 100 -37q9 -7 43 -59q68 -102 174 -102q83 0 142 58.5t59 141.5q0 106 -87.5 166t-242.5 60q-46 0 -104 -4q-44 -7 -52 -7q-62 0 -98.5 34t-36.5 91q0 27 2 41l47 324l5 31q12 77 58.5 111t139.5 34h436h33q72 -2 115 -40.5 t43 -102.5t-43.5 -104t-114.5 -40h-33h-342l-12 -94q37 4 82 4q144 0 262.5 -65.5t186 -181t67.5 -255.5q0 -138 -68 -255t-185.5 -184.5t-256.5 -67.5q-207 0 -358 145q-113 107 -113 207z" />
<glyph unicode="6" horiz-adv-x="1183" d="M61 504q0 85 30 173t83 157l332 438l37 49q59 76 133 76q63 0 110.5 -45.5t47.5 -104.5t-43 -114l-21 -27l-82 -115q194 -22 314 -155t120 -326q0 -145 -70.5 -267t-192 -192.5t-265.5 -70.5q-143 0 -266 70.5t-195 191.5t-72 262zM375 512q0 -91 63 -155t154 -64 q89 0 153 64t64 153q0 91 -64 154t-155 63q-89 0 -152 -63.5t-63 -151.5z" />
<glyph unicode="7" horiz-adv-x="950" d="M-12 1223q0 63 43.5 103t113.5 40h33h561q185 0 185 -178q0 -58 -29 -127l-373 -930l-12 -33q-49 -112 -150 -112q-63 0 -109 43.5t-46 103.5q0 37 16 80l15 33l331 833h-389h-33q-72 1 -114.5 40t-42.5 104z" />
<glyph unicode="8" horiz-adv-x="1105" d="M53 479q0 99 37 173.5t119 140.5q-44 62 -60 102t-16 92q0 161 124.5 280t293.5 119q110 0 207.5 -55.5t155 -149t57.5 -200.5q0 -52 -16 -93t-58 -95q154 -110 154 -310q0 -140 -65.5 -255.5t-179.5 -181.5t-253 -66q-134 0 -249 67t-183 182t-68 250zM375 467 q0 -73 53.5 -126.5t126.5 -53.5t126.5 53.5t53.5 126.5q0 75 -53 128.5t-129 53.5q-73 0 -125.5 -53.5t-52.5 -128.5zM446 979q0 -46 31.5 -77.5t75.5 -31.5q43 0 73.5 31t30.5 74q0 42 -31 73t-73 31q-43 0 -75 -29.5t-32 -70.5z" />
<glyph unicode="9" horiz-adv-x="1183" d="M61 856q0 145 70 267t192 192.5t267 70.5q142 0 265 -71t195 -191.5t72 -259.5q0 -82 -31 -174t-83 -160l-334 -442q-45 -61 -77 -81.5t-77 -20.5q-63 0 -110.5 44.5t-47.5 104.5t44 113l20 28l70 97q-197 25 -316 156.5t-119 326.5zM375 856q0 -91 63.5 -154t155.5 -63 q88 0 151.5 63t63.5 152q0 91 -64 155t-153 64q-90 0 -153.5 -63.5t-63.5 -153.5z" />
<glyph unicode=":" horiz-adv-x="573" d="M111 158q0 74 51.5 125t124.5 51q74 0 126 -51.5t52 -124.5q0 -74 -52.5 -126t-125.5 -52t-124.5 52t-51.5 126zM111 629q0 73 51.5 124.5t124.5 51.5q74 0 126 -51.5t52 -124.5t-52.5 -125.5t-125.5 -52.5t-124.5 52t-51.5 126z" />
<glyph unicode=";" horiz-adv-x="575" d="M109 152q0 72 53.5 125t126.5 53q72 0 124 -51t52 -123q0 -40 -21 -99l-65 -178q-19 -48 -39.5 -68t-52.5 -20q-34 0 -60 24.5t-26 55.5q0 20 16 70l16 39l-12 6q-112 55 -112 166zM109 629q0 73 52 124.5t126 51.5t126 -51.5t52 -124.5t-52.5 -125.5t-125.5 -52.5 t-125.5 52.5t-52.5 125.5z" />
<glyph unicode="&#x3c;" d="M68 0v1366h684v-1366h-684zM82 14h655v1338h-655v-1338z" />
<glyph unicode="=" d="M68 0v1366h684v-1366h-684zM82 14h655v1338h-655v-1338z" />
<glyph unicode="&#x3e;" d="M68 0v1366h684v-1366h-684zM82 14h655v1338h-655v-1338z" />
<glyph unicode="?" horiz-adv-x="1107" d="M61 946q0 60 30.5 134.5t78.5 131.5q69 82 168.5 128t208.5 46q132 0 244 -66t177.5 -179.5t65.5 -247.5q0 -128 -65.5 -238.5t-177 -175.5t-240.5 -65q-75 0 -120.5 37t-45.5 100q0 60 35 92.5t112 44.5q224 35 224 213q0 88 -62.5 150.5t-150.5 62.5q-163 0 -213 -201 q-23 -110 -131 -110q-60 0 -99 40t-39 103zM383 158q0 74 51.5 125t124.5 51q74 0 126 -51.5t52 -124.5q0 -74 -52.5 -126t-125.5 -52t-124.5 52t-51.5 126z" />
<glyph unicode="@" d="M68 0v1366h684v-1366h-684zM82 14h655v1338h-655v-1338z" />
<glyph unicode="A" horiz-adv-x="1286" d="M-2 141q0 39 22 88l15 31l452 1014q44 96 150 96q50 0 89.5 -25.5t59.5 -70.5l465 -1010q22 -48 28.5 -71t6.5 -52q0 -61 -47.5 -106t-110.5 -45q-104 0 -153 108l-14 33l-48 102h-548l-43 -100l-13 -31q-51 -110 -153 -110q-64 0 -111 44t-47 105zM477 504h328l-166 393 z" />
<glyph unicode="B" horiz-adv-x="1253" d="M152 182v37v928v37q0 89 46 135.5t134 46.5h37h317q193 0 301 -82q66 -51 101.5 -129.5t35.5 -169.5q0 -159 -112 -254q180 -118 180 -330q0 -107 -46 -197t-128 -143q-91 -61 -240 -61h-409h-37q-180 3 -180 182zM465 285h250q63 0 94 20q30 17 49 50.5t19 68.5 q0 64 -44 103.5t-116 39.5h-252v-282zM465 829h217q57 0 86 13q27 12 45 43t18 65q0 59 -40.5 93t-110.5 34h-215v-248z" />
<glyph unicode="C" horiz-adv-x="1361" d="M61 684q0 190 95 352t257.5 256t352.5 94q247 0 446 -163q60 -50 85.5 -89.5t25.5 -84.5q0 -63 -45 -107.5t-109 -44.5q-59 0 -114 49l-33 31q-51 46 -119.5 72t-138.5 26q-161 0 -275 -115.5t-114 -277.5q0 -161 116 -276t277 -115q65 0 133.5 23.5t108.5 60.5l55 51 q52 49 117 49q63 0 108 -45t45 -108q0 -67 -73 -140q-94 -94 -226.5 -148t-267.5 -54q-190 0 -353 95t-258.5 257.5t-95.5 351.5z" />
<glyph unicode="D" horiz-adv-x="1429" d="M150 182v37v928v37q2 89 48 135.5t134 46.5h37h264q158 0 265 -32t204 -109q126 -101 196 -244t70 -301q0 -177 -88 -332.5t-242 -249.5q-157 -98 -405 -98h-264h-37q-89 2 -135.5 48t-46.5 134zM463 285h133q102 0 166.5 13.5t116.5 47.5q82 53 129 142t47 192 q0 177 -125.5 285t-331.5 108h-135v-788z" />
<glyph unicode="E" horiz-adv-x="1097" d="M150 182v37v928v37q2 89 48 135.5t134 46.5h37h499h33q72 -2 115 -40.5t43 -102.5t-43.5 -104t-114.5 -40h-33h-405v-254h319h29q66 -2 105.5 -36.5t39.5 -92.5t-40 -94.5t-105 -36.5h-29h-319v-278h416h32q72 -2 116 -41t44 -103t-44.5 -103.5t-115.5 -39.5h-32h-510 h-37q-89 2 -135.5 48t-46.5 134z" />
<glyph unicode="F" horiz-adv-x="1095" d="M150 162v35v950v37q2 89 48 135.5t134 46.5h37h510h30q74 -2 117 -40.5t43 -102.5q0 -65 -44 -104.5t-116 -39.5h-30h-416v-266h321h29q66 -2 105.5 -37.5t39.5 -93.5q0 -57 -40.5 -93t-104.5 -36h-29h-321v-356v-35q0 -80 -43 -128t-113 -48t-113.5 49t-43.5 127z" />
<glyph unicode="G" horiz-adv-x="1411" d="M61 684q0 143 56 273t150.5 224t225.5 149.5t275 55.5q204 0 377 -110q57 -36 80.5 -72t23.5 -84q0 -64 -44.5 -108.5t-108.5 -44.5q-31 0 -46.5 6.5t-78.5 46.5q-88 59 -201 59q-162 0 -278.5 -116.5t-116.5 -278.5q0 -169 123.5 -285t304.5 -116q76 0 130.5 25t76.5 69 q16 33 16 108v23h-192h-31q-74 2 -117 40.5t-43 102.5q0 63 44 103.5t116 40.5h31h278h35q89 -1 135.5 -48t46.5 -135v-37v-169q0 -134 -84 -234q-72 -85 -204 -138.5t-269 -53.5q-191 0 -355 95t-260 257.5t-96 351.5z" />
<glyph unicode="H" horiz-adv-x="1435" d="M150 162v35v972v35q2 80 44.5 127t112.5 47t113 -48t43 -126v-35v-331h510v331v35q0 79 42 126.5t113 47.5t114.5 -48t43.5 -126v-35v-972v-35q-3 -80 -45.5 -128t-112.5 -48t-112.5 49t-42.5 127v35v354h-510v-354v-35q0 -80 -43 -128t-113 -48t-113.5 49t-43.5 127z " />
<glyph unicode="I" horiz-adv-x="614" d="M150 162v35v972v35q2 80 44.5 127t112.5 47t113 -48t43 -126v-35v-972v-35q0 -80 -43 -128t-113 -48t-113.5 49t-43.5 127z" />
<glyph unicode="J" horiz-adv-x="1171" d="M33 475q0 78 43 127t112 49q60 0 104 -39.5t50 -99.5l4 -35q9 -82 64.5 -133t134.5 -51q57 0 105 28.5t71 75.5q17 34 22 64t5 104v604v35q2 80 44.5 127t112.5 47q69 0 112.5 -48t43.5 -126v-35v-639q0 -122 -22.5 -198.5t-80.5 -149.5q-155 -202 -409 -202 q-138 0 -257 67.5t-189 181.5t-70 246z" />
<glyph unicode="K" horiz-adv-x="1310" d="M150 162v35v972v35q2 80 44.5 127t112.5 47t113 -48t43 -126v-35v-325l459 459l22 24q60 57 121 57q66 0 112 -45.5t46 -111.5q0 -35 -18.5 -66.5t-65.5 -77.5l-389 -381l448 -413q53 -50 71.5 -80.5t18.5 -69.5q0 -66 -47 -111.5t-113 -45.5q-58 0 -116 55l-27 24 l-522 492v-356v-35q0 -80 -43 -128t-113 -48t-113.5 49t-43.5 127z" />
<glyph unicode="L" horiz-adv-x="1056" d="M150 182v37v950v35q2 80 44.5 127t112.5 47t113 -48t43 -126v-35v-882h375h32q72 -2 115 -41t43 -103t-43.5 -103.5t-114.5 -39.5h-32h-469h-37q-89 2 -135.5 48t-46.5 134z" />
<glyph unicode="M" horiz-adv-x="1677" d="M63 143q0 28 7 56l8 32l239 1016q13 61 53.5 96t94.5 35q101 0 147 -118l222 -609l213 590q26 72 61.5 104.5t89.5 32.5q58 0 98.5 -36t55.5 -101l247 -1008l9 -32q6 -30 6 -62q0 -61 -45.5 -105t-108.5 -44q-60 0 -101 35.5t-56 99.5l-9 35l-133 547l-182 -586l-10 -29 q-17 -49 -52.5 -76.5t-80.5 -27.5q-103 0 -144 133l-180 586l-129 -547l-8 -33q-35 -137 -158 -137q-65 0 -109.5 44.5t-44.5 108.5z" />
<glyph unicode="N" horiz-adv-x="1482" d="M150 162v35v999q0 77 26 115q46 67 123 67q44 0 76 -19t71 -71l574 -723v604v35q1 79 44 126.5t112 47.5q70 0 113.5 -48t43.5 -126v-35v-983q0 -58 -4.5 -84t-19.5 -47q-23 -35 -61 -55t-81 -20q-44 0 -74 19.5t-73 78.5l-557 715v-596v-35q0 -80 -43 -128t-113 -48 t-113.5 49t-43.5 127z" />
<glyph unicode="O" horiz-adv-x="1533" d="M61 682q0 143 55.5 273.5t149.5 225t224.5 150t273.5 55.5q135 0 266.5 -55t235.5 -155q100 -95 153.5 -224t53.5 -272q0 -189 -95 -350.5t-257.5 -255.5t-352.5 -94q-144 0 -275 55.5t-225.5 149.5t-150.5 224t-56 273zM373 680q0 -161 116 -276t279 -115t277 114 t114 277t-115 279t-276 116t-278 -117t-117 -278z" />
<glyph unicode="P" horiz-adv-x="1179" d="M152 162v35v950v37q0 89 46 135.5t134 46.5h37h231q70 0 188 -25q185 -44 287 -208q78 -131 78 -271q0 -139 -76.5 -260.5t-202.5 -183.5q-56 -27 -111.5 -37t-146.5 -10h-151v-174v-35q-2 -80 -45 -128t-113 -48t-112.5 49t-42.5 127zM465 657h123q70 0 100 5t57 22 q47 26 76 74t29 102q0 57 -33 109.5t-84 77.5q-45 20 -145 20h-123v-410z" />
<glyph unicode="Q" horiz-adv-x="1562" d="M61 684q0 114 36 221t101.5 193.5t152.5 151.5t194.5 100.5t222.5 35.5q144 0 275.5 -56.5t227 -151.5t152 -226.5t56.5 -275.5q0 -166 -88 -338l61 -55l27 -23q65 -59 65 -127q0 -65 -45.5 -111.5t-109.5 -46.5q-57 0 -113 50l-27 22l-67 57q-195 -124 -408 -124 q-145 0 -277 55.5t-227.5 150t-152 225t-56.5 273.5zM377 684q0 -164 116.5 -279.5t280.5 -115.5q161 0 275 114t114 277q0 161 -115.5 278t-275.5 117q-163 0 -279 -115t-116 -276z" />
<glyph unicode="R" horiz-adv-x="1218" d="M150 162v35v950v37q2 89 48 135.5t134 46.5h37h211q119 0 200 -19.5t146 -62.5q106 -69 167.5 -181t61.5 -235q0 -142 -81 -247t-230 -158l233 -170q86 -65 86 -146q0 -66 -44.5 -112.5t-108.5 -46.5q-52 0 -109 45l-438 358v-194v-35q0 -80 -43 -128t-113 -48t-113.5 49 t-43.5 127zM463 662h119q126 0 174 30q45 28 70.5 74t25.5 100q0 59 -31.5 109t-85.5 76q-29 13 -57 16.5t-103 3.5h-112v-409z" />
<glyph unicode="S" horiz-adv-x="1122" d="M61 311q0 60 42.5 105t99.5 45q43 0 80 -18t88 -62q114 -105 215 -105q69 0 115.5 42.5t46.5 105.5q0 54 -38 89t-122 60l-135 39q-158 46 -234 101q-61 41 -94 111.5t-33 160.5q0 177 132.5 289t342.5 112q178 0 305 -77.5t127 -186.5q0 -60 -40 -102.5t-97 -42.5 q-39 0 -78 27q-2 1 -10 7.5t-26 21t-33 26.5q-80 65 -160 65q-63 0 -108.5 -37t-45.5 -88t36 -79.5t130 -51.5q176 -43 273 -90q107 -51 164 -141t57 -209q0 -199 -138.5 -323.5t-359.5 -124.5q-131 0 -247 45.5t-185.5 122.5t-69.5 163z" />
<glyph unicode="T" horiz-adv-x="1140" d="M0 1223q0 63 44 103t116 40h30h758h33q72 -2 116 -40.5t44 -102.5t-44.5 -104t-115.5 -40h-33h-221v-882v-35q-2 -80 -45 -128t-113 -48q-69 0 -112 49t-43 127v35v882h-224h-30q-73 1 -116.5 40t-43.5 104z" />
<glyph unicode="U" horiz-adv-x="1325" d="M111 532v637v35q0 79 42 126.5t113 47.5t114.5 -48t43.5 -126v-35v-637q0 -104 69.5 -175.5t170.5 -71.5q59 0 111.5 27.5t84.5 74.5q43 60 43 154v628v35q1 79 44 126.5t112 47.5q71 0 114.5 -48t43.5 -126v-35v-628q0 -156 -72 -285t-198 -202.5t-279 -73.5t-281 73.5 t-202 200.5t-74 278z" />
<glyph unicode="V" horiz-adv-x="1300" d="M27 1231q0 60 47 104.5t110 44.5q60 0 96 -32t68 -115l301 -752l305 754q32 83 67.5 114t96.5 31q62 0 108 -44.5t46 -104.5q0 -40 -19 -86l-14 -31l-436 -1001q-28 -62 -64.5 -90.5t-87.5 -28.5q-105 0 -157 119l-433 999l-14 31q-20 44 -20 88z" />
<glyph unicode="W" horiz-adv-x="1851" d="M27 1227q0 60 45 103.5t108 43.5t99.5 -35t62.5 -122l197 -644l229 695q15 49 58 78.5t100 29.5q53 0 93.5 -25.5t55.5 -68.5l242 -709l188 648q25 88 62 124.5t102 36.5t111.5 -44t46.5 -107q0 -35 -12 -70l-11 -33l-325 -1019q-41 -123 -150 -123q-51 0 -89.5 28.5 t-57.5 79.5l-254 719l-250 -719q-17 -51 -57 -79.5t-93 -28.5q-58 0 -92.5 28.5t-56.5 94.5l-332 1013l-10 33q-10 31 -10 72z" />
<glyph unicode="X" horiz-adv-x="1220" d="M33 139q0 34 13 64.5t50 79.5l316 417l-295 383q-38 50 -52 79t-14 61q0 65 48.5 111t115.5 46q44 0 77 -22t79 -82l235 -315l246 313l22 29q60 77 138 77q63 0 111 -46t48 -105q0 -68 -63 -146l-305 -383l321 -419q36 -48 50 -79.5t14 -64.5q0 -60 -48.5 -105.5 t-111.5 -45.5q-45 0 -78 21.5t-78 80.5l-266 352l-254 -348q-46 -61 -79.5 -83.5t-79.5 -22.5q-63 0 -111.5 46t-48.5 107z" />
<glyph unicode="Y" horiz-adv-x="1181" d="M27 1227q0 62 46.5 107.5t110.5 45.5q78 0 138 -82l18 -28l250 -361l250 361l20 28q61 82 137 82q63 0 110.5 -46t47.5 -107q0 -52 -39 -107l-18 -28l-350 -508v-387v-35q-2 -80 -44.5 -128t-111.5 -48q-70 0 -114 49t-44 127v35v387l-350 508q-34 52 -45.5 78.5 t-11.5 56.5z" />
<glyph unicode="Z" horiz-adv-x="1181" d="M41 1223q0 63 44 103t116 40h30h672q85 0 123 -14q40 -15 67 -58t27 -90q0 -53 -45 -114l-586 -803h461h33q72 -2 115 -41t43 -103t-43.5 -103.5t-114.5 -39.5h-33h-723q-86 0 -134 41t-48 115q0 55 37 106l594 817h-445h-30q-73 1 -116.5 40t-43.5 104z" />
<glyph unicode="[" horiz-adv-x="729" d="M190 -4v1364v37q3 182 183 182h37h116h33q74 -2 117 -40.5t43 -102.5t-44.5 -104t-115.5 -40h-33h-63v-1229h76h30q74 -2 117 -40.5t43 -102.5t-44 -103.5t-116 -39.5h-30h-129q-83 0 -124 14.5t-69 54.5q-15 24 -21 55.5t-6 94.5z" />
<glyph unicode="\" horiz-adv-x="702" d="M16 1462q0 51 37 86t90 35q46 0 79 -28t46 -80l8 -29l394 -1473l8 -28q6 -24 6 -54q0 -50 -36.5 -84t-88.5 -34q-46 0 -79 27.5t-46 78.5l-8 31l-397 1485l-4 14q-9 41 -9 53z" />
<glyph unicode="]" horiz-adv-x="729" d="M0 -80q0 64 44 103.5t116 39.5h30h76v1229h-65h-31q-73 1 -116.5 40t-43.5 104q0 64 44.5 103.5t115.5 39.5h33h116h37q183 -3 183 -182v-37v-1364q0 -68 -7 -100.5t-26 -57.5q-29 -35 -68.5 -48t-118.5 -13h-129h-30q-74 2 -117 40.5t-43 102.5z" />
<glyph unicode="^" d="M68 0v1366h684v-1366h-684zM82 14h655v1338h-655v-1338z" />
<glyph unicode="_" horiz-adv-x="1024" d="M0 -274h1024v-273h-1024v273z" />
<glyph unicode="`" horiz-adv-x="612" d="M135 1307q0 49 35 82.5t86 33.5q46 0 84 -41l100 -104q37 -37 37 -84t-35 -82t-82 -35q-50 0 -79 33l-113 119q-33 33 -33 78z" />
<glyph unicode="a" horiz-adv-x="1007" d="M53 332q0 152 103 255t254 103q94 0 202 -57q0 75 -27.5 106t-92.5 31q-32 0 -74 -10l-66 -19q-52 -16 -84 -16q-47 0 -76.5 30.5t-29.5 78.5q0 79 90 127.5t235 48.5q100 0 184 -28.5t136 -80.5q45 -47 65 -121q19 -70 19 -181v-11v-72v-311v-37q0 -53 -6 -78.5 t-25 -50.5q-41 -53 -110 -53q-83 0 -127 84q-115 -88 -232 -88q-143 0 -240.5 101t-97.5 249zM344 344q0 -58 39 -97.5t98 -39.5q57 0 94 38t37 95q0 60 -38.5 100.5t-96.5 40.5q-55 0 -94 -40t-39 -97z" />
<glyph unicode="b" horiz-adv-x="1189" d="M123 164v1020v30q2 69 39 110.5t98 41.5q60 0 97.5 -42t37.5 -110v-30v-289q120 94 273 94q199 0 333 -144.5t134 -359.5q0 -218 -134.5 -361.5t-338.5 -143.5q-85 0 -149 23.5t-130 80.5q-33 -98 -129 -98q-37 0 -67.5 16t-43.5 43q-20 36 -20 119zM389 485 q0 -97 67 -164t162 -67q97 0 164.5 68t67.5 165q0 94 -68.5 161t-163.5 67q-94 0 -161.5 -67.5t-67.5 -162.5z" />
<glyph unicode="c" horiz-adv-x="1001" d="M55 487q0 135 68 251t183.5 184.5t250.5 68.5q159 0 295 -92q55 -38 76.5 -70t21.5 -75q0 -57 -40.5 -96.5t-98.5 -39.5q-25 0 -42 6.5t-44 28.5q-45 35 -79.5 49.5t-76.5 14.5q-99 0 -168 -68t-69 -164q0 -97 68 -164t165 -67q61 0 105 27q6 3 69 49q40 30 84 30 q57 0 97.5 -40t40.5 -97q0 -58 -58.5 -115t-151.5 -92.5t-188 -35.5q-138 0 -255 68t-185 185t-68 254z" />
<glyph unicode="d" horiz-adv-x="1189" d="M55 485q0 215 134 359.5t333 144.5q153 0 273 -94v289v30q2 69 38.5 110.5t96.5 41.5q61 0 99 -42t38 -110v-30v-1020q0 -85 -20 -119q-30 -59 -111 -59q-49 0 -79.5 23.5t-49.5 74.5q-66 -57 -130 -80.5t-149 -23.5q-204 0 -338.5 143.5t-134.5 361.5zM340 487 q0 -97 67 -165t164 -68q95 0 162.5 68t67.5 163t-68 162.5t-162 67.5q-95 0 -163 -67t-68 -161z" />
<glyph unicode="e" horiz-adv-x="1024" d="M55 487q0 100 40.5 193t108 160.5t160 108t191.5 40.5q108 0 207.5 -47.5t160 -126.5t60.5 -166q0 -44 -26 -74.5t-87 -58.5l-454 -201q63 -55 147 -55q82 0 158 57q44 33 86 33q58 0 97.5 -39t39.5 -96q0 -83 -102 -152q-119 -83 -279 -83q-135 0 -252 69t-186.5 186 t-69.5 252zM336 516l348 150q-38 57 -121 57q-89 0 -154 -59.5t-73 -147.5z" />
<glyph unicode="f" horiz-adv-x="626" d="M6 846q0 55 37.5 89t99.5 34h9v24q2 96 9 142t27 84q37 71 103 109t153 38q106 0 182 -56.5t76 -135.5q0 -57 -36.5 -98.5t-87.5 -41.5q-28 0 -58 15l-28 16q-12 6 -23 6q-15 0 -28.5 -15t-14.5 -36q-2 -12 -2 -51h49h27q63 -2 100 -35t37 -88q0 -54 -38 -88.5t-99 -34.5 h-27h-49v-555v-31q-2 -69 -39 -110t-98 -41t-98 41.5t-37 109.5v31v555q-146 9 -146 123z" />
<glyph unicode="g" horiz-adv-x="1118" d="M55 520q0 198 122 333.5t302 135.5q77 0 139 -21t130 -71q36 86 120 86q68 0 107 -55q26 -38 26 -111v-670q0 -220 -81 -319q-67 -83 -170.5 -128.5t-225.5 -45.5q-164 0 -285.5 70t-121.5 165q0 56 38 95t93 39q31 0 56 -11t69 -43q48 -33 83.5 -46t80.5 -13 q92 0 142 57.5t50 163.5v16q-114 -81 -246 -81q-183 0 -305.5 130t-122.5 324zM342 528q0 -84 58 -142t141 -58t140.5 57.5t57.5 140.5q0 84 -57.5 142.5t-140.5 58.5q-82 0 -140.5 -58t-58.5 -141z" />
<glyph unicode="h" horiz-adv-x="1110" d="M123 137v31v1016v30q2 69 39 110.5t98 41.5t98 -42t37 -110v-18v-256q81 49 183 49q112 0 204 -48t148 -136q39 -61 52 -114.5t13 -155.5v-367v-31q-2 -69 -39 -110t-98 -41t-98 41.5t-37 109.5v31v340q0 74 -23 121q-18 39 -57 62.5t-82 23.5q-42 0 -80.5 -21.5 t-58.5 -56.5q-27 -49 -27 -129v-340v-31q-2 -69 -38 -110t-97 -41t-99 41.5t-38 109.5z" />
<glyph unicode="i" horiz-adv-x="518" d="M94 1202q0 70 48.5 118t119.5 48q68 0 115 -47t47 -115t-48.5 -116t-117.5 -48q-66 0 -115 48t-49 112zM127 137v31v633v30q2 69 38.5 110.5t96.5 41.5q61 0 99 -42t38 -110v-30v-633v-31q-1 -69 -38 -110t-97 -41q-61 0 -99 41.5t-38 109.5z" />
<glyph unicode="j" horiz-adv-x="526" d="M-61 -205q0 71 65 113l53 35q66 43 66 194v664v30q2 69 39 110.5t98 41.5t98 -42t37 -110v-30v-649v-76q0 -90 -2 -117t-12 -61q-26 -100 -108.5 -170t-174.5 -70q-70 0 -114.5 38.5t-44.5 98.5zM102 1202q0 70 48 118t118 48q68 0 115 -47t47 -115t-48 -116t-116 -48 q-67 0 -115.5 47.5t-48.5 112.5z" />
<glyph unicode="k" horiz-adv-x="1017" d="M123 137v31v1016v30q2 69 39 110.5t98 41.5t98 -42t37 -110v-30v-516l336 264l23 20q55 39 104 39q53 0 93 -42t40 -97q0 -73 -69 -121l-25 -18l-260 -189l278 -268q44 -43 60 -70t16 -61q0 -59 -41.5 -100t-101.5 -41q-54 0 -109 55l-20 22l-324 342v-235v-31 q-2 -69 -38 -110t-97 -41t-99 41.5t-38 109.5z" />
<glyph unicode="l" horiz-adv-x="518" d="M123 137v31v1016v30q2 69 39 110.5t98 41.5t98 -42t37 -110v-18v-1028v-18v-8q-1 -70 -35 -112q-36 -44 -100 -44q-61 0 -99 41.5t-38 109.5z" />
<glyph unicode="m" horiz-adv-x="1656" d="M117 137v31v410q0 167 125 289t297 122q150 0 290 -110q128 110 285 110q175 0 300.5 -126.5t125.5 -303.5v-391v-31q-2 -69 -38 -110t-97 -41t-99 41.5t-38 109.5v31v340q0 83 -17 127q-15 38 -53 62t-82 24q-40 0 -74 -20t-51 -54q-24 -49 -24 -139v-340v-31 q0 -69 -37 -110t-99 -41q-61 0 -99 41.5t-38 109.5v31v340q0 74 -12 115q-12 45 -51 73.5t-88 28.5q-51 0 -89.5 -28t-52.5 -74q-12 -37 -12 -115v-340v-31q-2 -69 -39 -110t-98 -41q-60 0 -97.5 42t-37.5 109z" />
<glyph unicode="n" horiz-adv-x="1112" d="M117 137v31v346q0 100 22.5 173.5t73.5 137.5q62 77 152 120.5t188 43.5q114 0 218 -58.5t165 -158.5q59 -95 59 -266v-338v-31q-1 -69 -38 -110t-97 -41q-61 0 -99 41.5t-38 109.5v31v313q0 97 -18 142q-19 41 -61 67.5t-89 26.5q-70 0 -118 -51t-48 -125v-52v-321v-31 q-2 -69 -39 -110t-98 -41q-60 0 -97.5 42t-37.5 109z" />
<glyph unicode="o" horiz-adv-x="1128" d="M55 475q0 107 40 202t108 163.5t163 108.5t201 40q138 0 254.5 -67.5t184 -184.5t67.5 -256q0 -135 -68.5 -250.5t-185.5 -183t-254 -67.5t-254.5 67t-186.5 181t-69 247zM334 479q0 -91 68 -157t163 -66q96 0 164 67t68 162q0 97 -67.5 164.5t-162.5 67.5 q-100 0 -166.5 -68.5t-66.5 -169.5z" />
<glyph unicode="p" horiz-adv-x="1189" d="M123 -213v1020q0 85 20 119q31 57 111 57q96 0 129 -98q66 57 130 80.5t149 23.5q204 0 338.5 -144t134.5 -362q0 -215 -133.5 -359t-333.5 -144q-154 0 -273 96v-289v-31q-1 -70 -37 -110.5t-98 -40.5t-99.5 41t-37.5 110v31zM389 483q0 -95 67.5 -162t161.5 -67 q95 0 163.5 66.5t68.5 160.5q0 98 -67.5 166t-164.5 68q-95 0 -162 -67.5t-67 -164.5z" />
<glyph unicode="q" horiz-adv-x="1189" d="M55 483q0 218 134.5 362t338.5 144q85 0 149 -23.5t130 -80.5q19 51 49.5 74.5t79.5 23.5q37 0 67.5 -15.5t43.5 -41.5q20 -39 20 -119v-1020v-31q-1 -70 -38 -110.5t-99 -40.5q-60 0 -97.5 42t-37.5 109v31v289q-119 -96 -273 -96q-200 0 -333.5 144t-133.5 359z M340 481q0 -94 68 -160.5t163 -66.5t162.5 67.5t67.5 161.5q0 97 -67.5 164.5t-162.5 67.5q-97 0 -164 -68t-67 -166z" />
<glyph unicode="r" horiz-adv-x="770" d="M123 137v31v616q0 61 3 83.5t15 43.5q41 72 117 72q83 0 125 -80q99 86 211 86q72 0 124 -49.5t52 -118.5q0 -67 -48 -114.5t-116 -47.5q-28 0 -42 5.5t-56 29.5q-32 19 -53 19q-32 0 -46 -29t-14 -96v-420v-31q-2 -69 -38 -110t-97 -41t-99 41.5t-38 109.5z" />
<glyph unicode="s" horiz-adv-x="913" d="M55 248q0 56 37 97.5t88 41.5q62 0 144 -70q60 -52 90.5 -68t70.5 -16t67.5 20.5t27.5 51.5q0 50 -91 70q-132 31 -235 80q-68 34 -109 100t-41 141q0 86 52.5 160t140.5 109q70 26 166 26q130 0 227.5 -57.5t97.5 -134.5q0 -48 -36.5 -84.5t-85.5 -36.5q-50 0 -117 41 q-54 30 -73 38.5t-40 8.5t-36 -14t-15 -33q0 -34 35 -55t129 -46q126 -34 176 -61q63 -35 98 -98t35 -140q0 -150 -109.5 -244.5t-283.5 -94.5q-160 0 -285 82t-125 186z" />
<glyph unicode="t" horiz-adv-x="630" d="M14 846q0 61 40 93q38 30 107 30h9v145v31q1 70 38 110.5t99 40.5q60 0 97.5 -42t37.5 -109v-31v-145h31h29q62 -2 98.5 -35t36.5 -88q0 -54 -37.5 -88.5t-97.5 -34.5h-29h-31v-555v-31q-2 -69 -39 -110t-98 -41q-60 0 -97.5 42t-37.5 109v31v555h-14q-66 0 -104 33 t-38 90z" />
<glyph unicode="u" horiz-adv-x="1112" d="M117 463v338v30q2 69 38 110.5t97 41.5t99 -42t38 -110v-30v-314q0 -94 19 -139q19 -42 60.5 -69t88.5 -27q70 0 118 51t48 125v51v322v30q2 69 39 110.5t98 41.5q60 0 97.5 -42t37.5 -110v-30v-344q0 -193 -96 -312q-61 -78 -151.5 -121.5t-188.5 -43.5 q-114 0 -218 58.5t-165 158.5q-59 95 -59 266z" />
<glyph unicode="v" horiz-adv-x="972" d="M14 856q0 52 39.5 89.5t93.5 37.5t84 -25t62 -96l196 -452l195 452q31 70 60.5 95.5t80.5 25.5q56 0 96 -37.5t40 -89.5q0 -36 -19 -76l-12 -28l-303 -666q-44 -100 -135 -100q-49 0 -79.5 22t-56.5 78l-311 664l-12 26q-19 46 -19 80z" />
<glyph unicode="w" horiz-adv-x="1413" d="M12 862q0 52 39.5 89.5t93.5 37.5q96 0 131 -106l9 -27l131 -401l153 417q22 60 55 87.5t85 27.5q94 0 133 -102l157 -430l121 393l8 31q38 110 136 110q56 0 96.5 -39t40.5 -94q0 -30 -12 -65l-11 -29l-237 -666q-23 -61 -52.5 -85.5t-80.5 -24.5q-52 0 -83 24t-57 86 l-161 404l-156 -402q-26 -65 -54.5 -88.5t-80.5 -23.5q-44 0 -77 22.5t-48 63.5l-8 26l-248 670l-10 29q-13 37 -13 65z" />
<glyph unicode="x" horiz-adv-x="983" d="M25 125q0 51 63 125l225 256l-184 221q-34 41 -46.5 68.5t-12.5 58.5q0 54 41.5 92.5t99.5 38.5q36 0 63.5 -17t67.5 -65l154 -188l161 186q39 47 70 65.5t68 18.5q57 0 99 -42.5t42 -100.5q0 -29 -15.5 -57t-52.5 -70l-192 -209l219 -256q36 -40 49.5 -67.5t13.5 -57.5 q0 -57 -41 -99t-98 -42q-37 0 -67 19.5t-70 68.5l-186 227l-195 -231q-42 -48 -70.5 -66t-64.5 -18q-58 0 -99.5 41t-41.5 100z" />
<glyph unicode="y" horiz-adv-x="1003" d="M14 -158q0 54 36 93.5t85 39.5q31 0 58 -8l38 -10q21 -6 41 -6q49 0 80 82l29 73l-311 639l-15 27q-20 48 -20 82q0 52 41.5 90.5t95.5 38.5q88 0 131 -94l12 -27l201 -444l184 434l13 31q46 100 137 100q56 0 98.5 -40.5t42.5 -94.5q0 -42 -33 -109l-391 -823 q-44 -92 -82 -141q-40 -51 -102 -81t-127 -30q-98 0 -170 53t-72 125z" />
<glyph unicode="z" horiz-adv-x="897" d="M41 139q0 28 10.5 49t48.5 72l353 459h-220h-28q-63 2 -101 36t-38 89q0 57 38.5 91t100.5 34h28h447q75 0 121.5 -40t46.5 -104q0 -39 -35 -86l-375 -489h252h29q63 -1 100 -35t37 -90t-38 -90.5t-99 -34.5h-29h-487q-50 0 -86 16q-32 17 -54 52.5t-22 70.5z" />
<glyph unicode="{" d="M68 0v1366h684v-1366h-684zM82 14h655v1338h-655v-1338z" />
<glyph unicode="|" d="M68 0v1366h684v-1366h-684zM82 14h655v1338h-655v-1338z" />
<glyph unicode="}" d="M68 0v1366h684v-1366h-684zM82 14h655v1338h-655v-1338z" />
<glyph unicode="~" d="M68 0v1366h684v-1366h-684zM82 14h655v1338h-655v-1338z" />
<glyph unicode="&#xa1;" horiz-adv-x="600" d="M123 1208q0 74 52.5 126t125.5 52t124.5 -52t51.5 -126t-51.5 -125t-124.5 -51q-74 0 -126 51.5t-52 124.5zM158 139v31v590v31q1 73 39.5 116t103.5 43q63 0 103 -44.5t40 -114.5v-31v-590v-31q-1 -73 -40.5 -116t-102.5 -43q-65 0 -104 43.5t-39 115.5z" />
<glyph unicode="&#xa2;" horiz-adv-x="1003" d="M55 745q0 167 100.5 301.5t258.5 180.5q1 96 33 137t104 41q75 0 106.5 -41t30.5 -137q91 -23 164 -74q55 -38 75.5 -68.5t20.5 -74.5q0 -59 -40 -97.5t-101 -38.5q-22 0 -37.5 7t-44.5 28q-78 64 -158 64q-97 0 -166 -68.5t-69 -163.5t68 -163t165 -68q47 0 81 15t93 61 q24 18 41.5 24t44.5 6q56 0 97 -41t41 -96q0 -68 -79 -132.5t-196 -92.5v-43q0 -50 -9.5 -78t-33.5 -47q-41 -33 -92 -33q-40 0 -73 18.5t-46 49.5q-12 27 -16 53.5t-4 85.5q-73 28 -120.5 57t-90.5 72q-69 67 -108.5 162.5t-39.5 193.5z" />
<glyph unicode="&#xa3;" horiz-adv-x="1204" d="M47 655q0 62 44 104t108 42h12q-16 71 -16 125q0 124 62.5 230t169.5 168t232 62q126 0 234.5 -65t175.5 -182q53 -95 53 -221q0 -89 -41 -143t-110 -54q-31 0 -63.5 13.5t-51.5 35.5q-21 21 -35 53q-12 24 -12 31l4 64q0 6 -2 14q-10 61 -52.5 99t-101.5 38 q-60 0 -105.5 -45.5t-45.5 -105.5q0 -16 18 -93q3 -9 6 -24h29h33q73 -1 116.5 -41t43.5 -105q0 -64 -44 -103.5t-116 -39.5h-25h-14q0 -126 -76 -225h508h33q73 -1 116.5 -40t43.5 -104q0 -64 -44.5 -103.5t-115.5 -39.5h-31h-618h-33q-80 3 -129 44.5t-49 107.5 q0 58 41 174q4 12 11 34q35 103 38 135q1 7 2 17h-14q-111 0 -152 47q-37 47 -37 96z" />
<glyph unicode="&#xa4;" d="M68 0v1366h684v-1366h-684zM82 14h655v1338h-655v-1338z" />
<glyph unicode="&#xa5;" horiz-adv-x="1181" d="M27 1227q0 63 46 108t111 45q46 0 82.5 -26t73.5 -84l250 -389l250 389q38 59 74.5 84.5t80.5 25.5q65 0 112.5 -45t47.5 -108q0 -55 -57 -135l-211 -287h18q78 0 123 -38t45 -105q0 -63 -45 -105q-22 -22 -54 -30.5t-91 -8.5h-135v-321v-35q-1 -81 -44 -128.5 t-112 -47.5q-70 0 -114 49t-44 127v35v321h-133h-31q-73 3 -116 42t-43 102q0 67 45 105t123 38h16l-211 287q-57 80 -57 135z" />
<glyph unicode="&#xa7;" d="M68 0v1366h684v-1366h-684zM82 14h655v1338h-655v-1338z" />
<glyph unicode="&#xa8;" horiz-adv-x="974" d="M135 1231q0 66 47 112t113 46q64 0 109 -45.5t45 -108.5q0 -65 -45.5 -110.5t-110.5 -45.5q-64 0 -111 45t-47 107zM524 1231q0 66 47 112t113 46q64 0 109 -45.5t45 -108.5q0 -65 -46 -110.5t-110 -45.5t-111 45t-47 107z" />
<glyph unicode="&#xa9;" d="M68 0v1366h684v-1366h-684zM82 14h655v1338h-655v-1338z" />
<glyph unicode="&#xaa;" d="M68 0v1366h684v-1366h-684zM82 14h655v1338h-655v-1338z" />
<glyph unicode="&#xab;" horiz-adv-x="890" d="M33 547q0 33 33 82l108 159l14 23q45 66 109 66q49 0 85 -35.5t36 -83.5q0 -34 -27 -80l-14 -23l-70 -108l70 -109l16 -22q27 -49 27 -84q0 -48 -37 -83.5t-88 -35.5q-40 0 -66 18t-61 72l-92 139l-15 23q-28 48 -28 82zM442 547q0 33 33 82l109 159l14 23q45 66 109 66 q49 0 84.5 -35.5t35.5 -83.5q0 -36 -26 -80l-15 -23l-69 -108l69 -109l17 -22q26 -47 26 -84q0 -48 -36.5 -83.5t-87.5 -35.5q-40 0 -66 18t-61 72l-93 139l-14 23q-29 50 -29 82z" />
<glyph unicode="&#xac;" d="M68 0v1366h684v-1366h-684zM82 14h655v1338h-655v-1338z" />
<glyph unicode="&#xad;" horiz-adv-x="751" d="M137 541q0 61 42 99t110 38h30h111h31q69 -1 110 -38t41 -97q0 -61 -41.5 -99t-109.5 -38h-17h-125h-18q-77 0 -120.5 36t-43.5 99z" />
<glyph unicode="&#xae;" d="M68 0v1366h684v-1366h-684zM82 14h655v1338h-655v-1338z" />
<glyph unicode="&#xaf;" d="M68 0v1366h684v-1366h-684zM82 14h655v1338h-655v-1338z" />
<glyph unicode="&#xb0;" d="M68 0v1366h684v-1366h-684zM82 14h655v1338h-655v-1338z" />
<glyph unicode="&#xb1;" d="M68 0v1366h684v-1366h-684zM82 14h655v1338h-655v-1338z" />
<glyph unicode="&#xb4;" horiz-adv-x="612" d="M135 1194q0 47 37 84l100 104q38 41 86 41q50 0 84.5 -34.5t34.5 -83.5q0 -43 -33 -76l-112 -119q-29 -33 -80 -33q-47 0 -82 35t-35 82z" />
<glyph unicode="&#xb5;" d="M68 0v1366h684v-1366h-684zM82 14h655v1338h-655v-1338z" />
<glyph unicode="&#xb6;" d="M68 0v1366h684v-1366h-684zM82 14h655v1338h-655v-1338z" />
<glyph unicode="&#xb7;" horiz-adv-x="573" d="M111 682q0 74 51.5 126t124.5 52t125.5 -52t52.5 -126q0 -73 -52 -124.5t-126 -51.5q-73 0 -124.5 51t-51.5 125z" />
<glyph unicode="&#xb8;" d="M68 0v1366h684v-1366h-684zM82 14h655v1338h-655v-1338z" />
<glyph unicode="&#xba;" d="M68 0v1366h684v-1366h-684zM82 14h655v1338h-655v-1338z" />
<glyph unicode="&#xbb;" horiz-adv-x="890" d="M59 332q0 35 29 84l14 22l70 109l-70 108l-14 23q-27 46 -27 80q0 47 37 83t86 36q64 0 109 -66l14 -23l109 -159q30 -45 30 -82q0 -38 -26 -82l-14 -23l-95 -139q-35 -53 -60.5 -71.5t-64.5 -18.5q-51 0 -89 36t-38 83zM471 332q0 38 27 84l14 22l70 109l-70 108l-14 23 q-27 46 -27 80q0 47 37 83t86 36q63 0 108 -66l15 -23l108 -159q31 -47 31 -82q0 -36 -27 -82l-14 -23l-94 -139q-35 -53 -60.5 -71.5t-64.5 -18.5q-51 0 -88 35.5t-37 83.5z" />
<glyph unicode="&#xbf;" horiz-adv-x="1107" d="M76 471q0 96 38.5 185t103.5 154t154.5 103.5t186.5 38.5q75 0 119.5 -37t44.5 -100q0 -60 -36 -93.5t-112 -43.5q-221 -35 -221 -213q0 -89 61.5 -151t149.5 -62q167 0 213 201q24 110 131 110q60 0 99 -40.5t39 -102.5q0 -61 -30.5 -135t-78.5 -133 q-67 -81 -167.5 -126.5t-209.5 -45.5q-132 0 -243.5 66t-176.5 179t-65 246zM373 1208q0 74 51.5 126t124.5 52t125.5 -52t52.5 -126q0 -73 -52 -124.5t-126 -51.5q-73 0 -124.5 51t-51.5 125z" />
<glyph unicode="&#xc0;" horiz-adv-x="1286" d="M-2 141q0 39 22 88l15 31l452 1014q44 96 150 96q50 0 89.5 -25.5t59.5 -70.5l465 -1010q22 -48 28.5 -71t6.5 -52q0 -61 -47.5 -106t-110.5 -45q-104 0 -153 108l-14 33l-48 102h-548l-43 -100l-13 -31q-51 -110 -153 -110q-64 0 -111 44t-47 105zM403 1690 q0 49 35 82.5t86 33.5q46 0 84 -41l101 -104q36 -36 36 -84q0 -47 -34.5 -82t-81.5 -35q-51 0 -80 33l-113 119q-33 33 -33 78zM477 504h328l-166 393z" />
<glyph unicode="&#xc1;" horiz-adv-x="1286" d="M-2 141q0 39 22 88l15 31l452 1014q44 96 150 96q50 0 89.5 -25.5t59.5 -70.5l465 -1010q22 -48 28.5 -71t6.5 -52q0 -61 -47.5 -106t-110.5 -45q-104 0 -153 108l-14 33l-48 102h-548l-43 -100l-13 -31q-51 -110 -153 -110q-64 0 -111 44t-47 105zM477 504h328l-166 393 zM502 1577q0 47 37 84l100 104q38 41 86 41q50 0 84.5 -34.5t34.5 -83.5q0 -43 -33 -76l-113 -119q-29 -33 -80 -33q-47 0 -81.5 35t-34.5 82z" />
<glyph unicode="&#xc2;" horiz-adv-x="1286" d="M-2 141q0 39 22 88l15 31l452 1014q44 96 150 96q50 0 89.5 -25.5t59.5 -70.5l465 -1010q22 -48 28.5 -71t6.5 -52q0 -61 -47.5 -106t-110.5 -45q-104 0 -153 108l-14 33l-48 102h-548l-43 -100l-13 -31q-51 -110 -153 -110q-64 0 -111 44t-47 105zM383 1573q0 45 27 69 l153 142q26 22 74 22q49 0 78 -22l139 -121q41 -35 41 -92q0 -48 -33 -81.5t-82 -33.5q-37 0 -67 23l-72 59l-70 -59q-23 -23 -71 -23t-82.5 34t-34.5 83zM477 504h328l-166 393z" />
<glyph unicode="&#xc3;" horiz-adv-x="1286" d="M-2 141q0 39 22 88l15 31l452 1014q44 96 150 96q50 0 89.5 -25.5t59.5 -70.5l465 -1010q22 -48 28.5 -71t6.5 -52q0 -61 -47.5 -106t-110.5 -45q-104 0 -153 108l-14 33l-48 102h-548l-43 -100l-13 -31q-51 -110 -153 -110q-64 0 -111 44t-47 105zM334 1575 q0 72 59.5 128t136.5 56q49 0 117 -30q59 -27 94 -27q29 0 45 8l41 23q23 10 39 10q35 0 62.5 -28.5t27.5 -65.5q0 -74 -62.5 -130.5t-145.5 -56.5q-43 0 -107 29q-59 29 -98 29q-27 0 -43 -11l-39 -20q-20 -10 -39 -10q-37 0 -62.5 28t-25.5 68zM477 504h328l-166 393z" />
<glyph unicode="&#xc4;" horiz-adv-x="1286" d="M-2 141q0 39 22 88l15 31l452 1014q44 96 150 96q50 0 89.5 -25.5t59.5 -70.5l465 -1010q22 -48 28.5 -71t6.5 -52q0 -61 -47.5 -106t-110.5 -45q-104 0 -153 108l-14 33l-48 102h-548l-43 -100l-13 -31q-51 -110 -153 -110q-64 0 -111 44t-47 105zM293 1618q0 66 47 112 t113 46q64 0 108.5 -45.5t44.5 -108.5q0 -65 -45.5 -110.5t-109.5 -45.5t-111 45t-47 107zM477 504h328l-166 393zM682 1618q0 66 47 112t113 46q64 0 108.5 -45.5t44.5 -108.5q0 -65 -45.5 -110.5t-109.5 -45.5t-111 45t-47 107z" />
<glyph unicode="&#xc5;" horiz-adv-x="1286" d="M-2 141q0 39 22 88l15 31l452 1014q44 96 150 96q50 0 89.5 -25.5t59.5 -70.5l465 -1010q22 -48 28.5 -71t6.5 -52q0 -61 -47.5 -106t-110.5 -45q-104 0 -153 108l-14 33l-48 102h-548l-43 -100l-13 -31q-51 -110 -153 -110q-64 0 -111 44t-47 105zM453 1634 q0 80 55.5 135.5t134.5 55.5q78 0 133 -55.5t55 -133.5q0 -76 -56 -131t-134 -55q-77 0 -132.5 54.5t-55.5 129.5zM477 504h328l-166 393zM549 1634q0 -36 27 -62t65 -26t66 26.5t28 63.5q0 38 -27 65.5t-65 27.5q-40 0 -67 -27.5t-27 -67.5z" />
<glyph unicode="&#xc6;" horiz-adv-x="1730" d="M-2 129q0 38 22 84l15 25l559 1042q26 48 59 67t90 19h756q80 0 119 -20q32 -15 52 -49t20 -74q0 -146 -191 -146h-403v-252h319q76 0 109 -16q28 -13 45.5 -45.5t17.5 -67.5t-18.5 -67.5t-46.5 -44.5q-44 -19 -107 -19h-319v-278h415q75 0 121 -19q31 -15 51.5 -51 t20.5 -76q0 -38 -20.5 -74t-51.5 -49q-45 -18 -121 -18h-510q-75 0 -108 9t-62 38q-29 27 -39 61t-10 99v96h-360l-113 -219q-50 -104 -155 -104q-65 0 -110.5 43t-45.5 106zM555 567h227v445z" />
<glyph unicode="&#xc7;" horiz-adv-x="1361" d="M61 682q0 144 56 274.5t150.5 224.5t225 149.5t273.5 55.5q142 0 277 -58t229 -159q51 -56 51 -116q0 -66 -44.5 -111t-109.5 -45q-60 0 -114 51l-33 31q-51 45 -119.5 70.5t-138.5 25.5q-161 0 -275 -115t-114 -278q0 -161 116 -276t277 -115q64 0 133 24.5t109 61.5 l55 49q54 51 117 51t108 -45t45 -108q0 -113 -186 -230q-146 -95 -313 -110q41 -35 41 -90q0 -46 -33 -82l-119 -125q-30 -33 -86 -33q-51 0 -86 36t-35 87q0 49 37 86l107 112q2 1 6 6t6 7q-261 37 -437 236t-176 458z" />
<glyph unicode="&#xc8;" horiz-adv-x="1097" d="M150 182v37v928v37q2 89 48 135.5t134 46.5h37h499h33q72 -2 115 -40.5t43 -102.5t-43.5 -104t-114.5 -40h-33h-405v-254h319h29q66 -2 105.5 -36.5t39.5 -92.5t-40 -94.5t-105 -36.5h-29h-319v-278h416h32q72 -2 116 -41t44 -103t-44.5 -103.5t-115.5 -39.5h-32h-510 h-37q-89 2 -135.5 48t-46.5 134zM401 1690q0 49 35 82.5t86 33.5q46 0 84 -41l101 -104q36 -36 36 -84q0 -47 -34.5 -82t-81.5 -35q-51 0 -80 33l-113 119q-33 33 -33 78z" />
<glyph unicode="&#xc9;" horiz-adv-x="1097" d="M150 182v37v928v37q2 89 48 135.5t134 46.5h37h499h33q72 -2 115 -40.5t43 -102.5t-43.5 -104t-114.5 -40h-33h-405v-254h319h29q66 -2 105.5 -36.5t39.5 -92.5t-40 -94.5t-105 -36.5h-29h-319v-278h416h32q72 -2 116 -41t44 -103t-44.5 -103.5t-115.5 -39.5h-32h-510 h-37q-89 2 -135.5 48t-46.5 134zM502 1577q0 47 37 84l100 104q38 41 86 41q50 0 84.5 -34.5t34.5 -83.5q0 -43 -33 -76l-113 -119q-29 -33 -80 -33q-47 0 -81.5 35t-34.5 82z" />
<glyph unicode="&#xca;" horiz-adv-x="1097" d="M150 182v37v928v37q2 89 48 135.5t134 46.5h37h499h33q72 -2 115 -40.5t43 -102.5t-43.5 -104t-114.5 -40h-33h-405v-254h319h29q66 -2 105.5 -36.5t39.5 -92.5t-40 -94.5t-105 -36.5h-29h-319v-278h416h32q72 -2 116 -41t44 -103t-44.5 -103.5t-115.5 -39.5h-32h-510 h-37q-89 2 -135.5 48t-46.5 134zM334 1579q0 47 26 70l154 141q26 22 74 22q49 0 78 -22l139 -121q41 -35 41 -92q0 -48 -33 -81.5t-82 -33.5q-37 0 -67 23l-72 59l-70 -59q-23 -23 -71 -23t-82.5 34t-34.5 83z" />
<glyph unicode="&#xcb;" horiz-adv-x="1097" d="M150 182v37v928v37q2 89 48 135.5t134 46.5h37h499h33q72 -2 115 -40.5t43 -102.5t-43.5 -104t-114.5 -40h-33h-405v-254h319h29q66 -2 105.5 -36.5t39.5 -92.5t-40 -94.5t-105 -36.5h-29h-319v-278h416h32q72 -2 116 -41t44 -103t-44.5 -103.5t-115.5 -39.5h-32h-510 h-37q-89 2 -135.5 48t-46.5 134zM231 1614q0 66 47 112t113 46q64 0 109 -45.5t45 -108.5q0 -64 -45.5 -110t-110.5 -46q-64 0 -111 45t-47 107zM621 1614q0 66 46.5 112t112.5 46q64 0 109 -45.5t45 -108.5q0 -64 -46 -110t-110 -46t-110.5 45t-46.5 107z" />
<glyph unicode="&#xcc;" horiz-adv-x="614" d="M150 162v35v972v35q2 80 44.5 127t112.5 47t113 -48t43 -126v-35v-972v-35q0 -80 -43 -128t-113 -48t-113.5 49t-43.5 127zM150 1690q0 49 34.5 82.5t85.5 33.5q46 0 84 -41l101 -104q37 -37 37 -84t-35 -82t-82 -35q-51 0 -80 33l-113 119q-32 32 -32 78z" />
<glyph unicode="&#xcd;" horiz-adv-x="614" d="M150 162v35v972v35q2 80 44.5 127t112.5 47t113 -48t43 -126v-35v-972v-35q0 -80 -43 -128t-113 -48t-113.5 49t-43.5 127zM150 1577q0 48 36 84l101 104q38 41 86 41q50 0 84.5 -34.5t34.5 -83.5q0 -43 -33 -76l-113 -119q-29 -33 -80 -33q-47 0 -81.5 35t-34.5 82z" />
<glyph unicode="&#xce;" horiz-adv-x="614" d="M147 1579q0 46 27 70l154 141q26 22 73 22q49 0 78 -22l139 -121q41 -35 41 -92q0 -48 -32.5 -81.5t-81.5 -33.5q-38 0 -68 23l-71 59l-70 -59q-23 -23 -72 -23q-48 0 -82.5 34t-34.5 83zM150 162v35v972v35q2 80 44.5 127t112.5 47t113 -48t43 -126v-35v-972v-35 q0 -80 -43 -128t-113 -48t-113.5 49t-43.5 127z" />
<glyph unicode="&#xcf;" horiz-adv-x="614" d="M147 1614q0 66 47 112t113 46q64 0 109 -45.5t45 -108.5q0 -64 -45.5 -110t-110.5 -46q-64 0 -111 45t-47 107zM150 162v35v972v35q2 80 44.5 127t112.5 47t113 -48t43 -126v-35v-972v-35q0 -80 -43 -128t-113 -48t-113.5 49t-43.5 127zM537 1614q0 66 46.5 112t112.5 46 q64 0 109 -45.5t45 -108.5q0 -64 -46 -110t-110 -46t-110.5 45t-46.5 107z" />
<glyph unicode="&#xd1;" horiz-adv-x="1482" d="M150 162v35v999q0 77 26 115q46 67 123 67q44 0 76 -19t71 -71l574 -723v604v35q1 79 44 126.5t112 47.5q70 0 113.5 -48t43.5 -126v-35v-983q0 -58 -4.5 -84t-19.5 -47q-23 -35 -61 -55t-81 -20q-44 0 -74 19.5t-73 78.5l-557 715v-596v-35q0 -80 -43 -128t-113 -48 t-113.5 49t-43.5 127zM430 1569q0 72 60 128t137 56q45 0 116 -31q56 -26 95 -26q29 0 45 8l41 22q26 11 39 11q35 0 62.5 -29t27.5 -66q0 -74 -63 -130t-146 -56q-43 0 -107 29q-57 28 -98 28q-28 0 -43 -10l-39 -20q-20 -10 -39 -10q-37 0 -62.5 28t-25.5 68z" />
<glyph unicode="&#xd2;" horiz-adv-x="1533" d="M61 682q0 143 55.5 273.5t149.5 225t224.5 150t273.5 55.5q135 0 266.5 -55t235.5 -155q100 -95 153.5 -224t53.5 -272q0 -189 -95 -350.5t-257.5 -255.5t-352.5 -94q-144 0 -275 55.5t-225.5 149.5t-150.5 224t-56 273zM373 680q0 -161 116 -276t279 -115t277 114 t114 277t-115 279t-276 116t-278 -117t-117 -278zM528 1690q0 49 35 82.5t86 33.5q46 0 84 -41l101 -104q36 -36 36 -84q0 -47 -34.5 -82t-81.5 -35q-51 0 -80 33l-113 119q-33 33 -33 78z" />
<glyph unicode="&#xd3;" horiz-adv-x="1533" d="M61 682q0 143 55.5 273.5t149.5 225t224.5 150t273.5 55.5q135 0 266.5 -55t235.5 -155q100 -95 153.5 -224t53.5 -272q0 -189 -95 -350.5t-257.5 -255.5t-352.5 -94q-144 0 -275 55.5t-225.5 149.5t-150.5 224t-56 273zM373 680q0 -161 116 -276t279 -115t277 114 t114 277t-115 279t-276 116t-278 -117t-117 -278zM639 1577q0 47 37 84l100 104q38 41 86 41q50 0 84.5 -34.5t34.5 -83.5q0 -43 -33 -76l-112 -119q-29 -33 -80 -33q-47 0 -82 35t-35 82z" />
<glyph unicode="&#xd4;" horiz-adv-x="1533" d="M61 682q0 143 55.5 273.5t149.5 225t224.5 150t273.5 55.5q135 0 266.5 -55t235.5 -155q100 -95 153.5 -224t53.5 -272q0 -189 -95 -350.5t-257.5 -255.5t-352.5 -94q-144 0 -275 55.5t-225.5 149.5t-150.5 224t-56 273zM373 680q0 -161 116 -276t279 -115t277 114 t114 277t-115 279t-276 116t-278 -117t-117 -278zM504 1579q0 47 26 70l154 141q26 22 74 22q49 0 78 -22l139 -121q41 -35 41 -92q0 -48 -33 -81.5t-82 -33.5q-37 0 -67 23l-72 59l-70 -59q-23 -23 -71 -23t-82.5 34t-34.5 83z" />
<glyph unicode="&#xd5;" horiz-adv-x="1533" d="M61 682q0 143 55.5 273.5t149.5 225t224.5 150t273.5 55.5q135 0 266.5 -55t235.5 -155q100 -95 153.5 -224t53.5 -272q0 -189 -95 -350.5t-257.5 -255.5t-352.5 -94q-144 0 -275 55.5t-225.5 149.5t-150.5 224t-56 273zM373 680q0 -161 116 -276t279 -115t277 114 t114 277t-115 279t-276 116t-278 -117t-117 -278zM453 1569q0 72 59.5 128t136.5 56q46 0 117 -31q56 -26 94 -26q29 0 45 8l41 22q26 11 39 11q35 0 62.5 -29t27.5 -66q0 -74 -63 -130t-146 -56q-42 0 -106 29q-57 28 -98 28q-29 0 -44 -10l-38 -20q-20 -10 -39 -10 q-37 0 -62.5 28t-25.5 68z" />
<glyph unicode="&#xd6;" horiz-adv-x="1533" d="M61 682q0 143 55.5 273.5t149.5 225t224.5 150t273.5 55.5q135 0 266.5 -55t235.5 -155q100 -95 153.5 -224t53.5 -272q0 -189 -95 -350.5t-257.5 -255.5t-352.5 -94q-144 0 -275 55.5t-225.5 149.5t-150.5 224t-56 273zM373 680q0 -161 116 -276t279 -115t277 114 t114 277t-115 279t-276 116t-278 -117t-117 -278zM414 1614q0 66 46.5 112t112.5 46q64 0 109 -45.5t45 -108.5q0 -64 -45.5 -110t-110.5 -46q-64 0 -110.5 45t-46.5 107zM803 1614q0 66 47 112t113 46q64 0 108.5 -45.5t44.5 -108.5q0 -65 -45.5 -110.5t-109.5 -45.5 t-111 45t-47 107z" />
<glyph unicode="&#xd8;" horiz-adv-x="1536" d="M61 659q0 152 55 287t149 231.5t226 152.5t281 56q227 0 375 -116l8 12q12 16 76 57q24 16 36.5 20.5t32.5 4.5q66 0 113 -48t47 -114q0 -40 -22.5 -75t-73.5 -76q111 -146 111 -357q0 -201 -93.5 -364.5t-258 -256.5t-365.5 -93q-243 0 -369 108l-18 -22 q-28 -33 -71.5 -57.5t-74.5 -24.5q-67 0 -113 47.5t-46 115.5q0 32 25 75t59 71l20 16q-109 141 -109 350zM377 657q0 -77 22 -120l516 501q-49 37 -137 37q-172 0 -286.5 -119.5t-114.5 -298.5zM618 319q36 -36 127 -36q180 0 299 116t119 291q0 82 -24 135z" />
<glyph unicode="&#xd9;" horiz-adv-x="1325" d="M111 532v637v35q0 79 42 126.5t113 47.5t114.5 -48t43.5 -126v-35v-637q0 -104 69.5 -175.5t170.5 -71.5q59 0 111.5 27.5t84.5 74.5q43 60 43 154v628v35q1 79 44 126.5t112 47.5q71 0 114.5 -48t43.5 -126v-35v-628q0 -156 -72 -285t-198 -202.5t-279 -73.5t-281 73.5 t-202 200.5t-74 278zM440 1690q0 49 35 82.5t86 33.5q46 0 84 -41l100 -104q37 -37 37 -84t-34.5 -82t-81.5 -35q-51 0 -80 33l-113 119q-33 33 -33 78z" />
<glyph unicode="&#xda;" horiz-adv-x="1325" d="M111 532v637v35q0 79 42 126.5t113 47.5t114.5 -48t43.5 -126v-35v-637q0 -104 69.5 -175.5t170.5 -71.5q59 0 111.5 27.5t84.5 74.5q43 60 43 154v628v35q1 79 44 126.5t112 47.5q71 0 114.5 -48t43.5 -126v-35v-628q0 -156 -72 -285t-198 -202.5t-279 -73.5t-281 73.5 t-202 200.5t-74 278zM506 1577q0 47 37 84l100 104q38 41 86 41q50 0 84.5 -34.5t34.5 -83.5q0 -43 -33 -76l-113 -119q-29 -33 -79 -33q-47 0 -82 35t-35 82z" />
<glyph unicode="&#xdb;" horiz-adv-x="1325" d="M111 532v637v35q0 79 42 126.5t113 47.5t114.5 -48t43.5 -126v-35v-637q0 -104 69.5 -175.5t170.5 -71.5q59 0 111.5 27.5t84.5 74.5q43 60 43 154v628v35q1 79 44 126.5t112 47.5q71 0 114.5 -48t43.5 -126v-35v-628q0 -156 -72 -285t-198 -202.5t-279 -73.5t-281 73.5 t-202 200.5t-74 278zM399 1579q0 46 27 70l154 141q26 22 73 22q49 0 78 -22l139 -121q41 -35 41 -92q0 -48 -32.5 -81.5t-81.5 -33.5q-38 0 -68 23l-72 59l-69 -59q-23 -23 -72 -23q-48 0 -82.5 34t-34.5 83z" />
<glyph unicode="&#xdc;" horiz-adv-x="1325" d="M111 532v637v35q0 79 42 126.5t113 47.5t114.5 -48t43.5 -126v-35v-637q0 -104 69.5 -175.5t170.5 -71.5q59 0 111.5 27.5t84.5 74.5q43 60 43 154v628v35q1 79 44 126.5t112 47.5q71 0 114.5 -48t43.5 -126v-35v-628q0 -156 -72 -285t-198 -202.5t-279 -73.5t-281 73.5 t-202 200.5t-74 278zM309 1614q0 66 47 112t113 46q64 0 109 -45.5t45 -108.5q0 -64 -45.5 -110t-110.5 -46q-64 0 -111 45t-47 107zM698 1614q0 66 47 112t113 46q64 0 109 -45.5t45 -108.5q0 -64 -46 -110t-110 -46t-111 45t-47 107z" />
<glyph unicode="&#xdf;" horiz-adv-x="1071" d="M123 137v31v776q0 103 21 168t73 125q53 62 133.5 95.5t175.5 33.5q172 0 284 -97t112 -245q0 -151 -115 -233q100 -43 155.5 -136t55.5 -217t-56.5 -229.5t-152.5 -167t-209 -61.5q-68 0 -114 42t-46 103q0 51 35 87.5t86 41.5l31 2q63 6 105 58.5t42 125.5 q0 79 -50.5 127.5t-156.5 71.5q-57 12 -75.5 34t-18.5 75t19.5 77.5t70.5 34.5q127 27 127 127q0 50 -35.5 84.5t-87.5 34.5q-40 0 -73 -21t-47 -53q-17 -41 -17 -121v-743v-31q-2 -69 -38 -110t-97 -41t-99 41.5t-38 109.5z" />
<glyph unicode="&#xe0;" horiz-adv-x="1007" d="M53 332q0 152 103 255t254 103q94 0 202 -57q0 75 -27.5 106t-92.5 31q-32 0 -74 -10l-66 -19q-52 -16 -84 -16q-47 0 -76.5 30.5t-29.5 78.5q0 79 90 127.5t235 48.5q100 0 184 -28.5t136 -80.5q46 -47 65.5 -121t18.5 -192v-72v-311v-37q0 -53 -6 -78.5t-25 -50.5 q-41 -53 -110 -53q-83 0 -127 84q-115 -88 -232 -88q-143 0 -240.5 101t-97.5 249zM287 1307q0 49 35 82.5t86 33.5q46 0 84 -41l100 -104q37 -37 37 -84t-35 -82t-82 -35q-51 0 -80 33l-113 119q-32 32 -32 78zM344 344q0 -58 39 -97.5t98 -39.5q57 0 94 38t37 95 q0 60 -38.5 100.5t-96.5 40.5q-55 0 -94 -40t-39 -97z" />
<glyph unicode="&#xe1;" horiz-adv-x="1007" d="M53 332q0 152 103 255t254 103q94 0 202 -57q0 75 -27.5 106t-92.5 31q-32 0 -74 -10l-66 -19q-52 -16 -84 -16q-47 0 -76.5 30.5t-29.5 78.5q0 79 90 127.5t235 48.5q100 0 184 -28.5t136 -80.5q46 -47 65.5 -121t18.5 -192v-72v-311v-37q0 -53 -6 -78.5t-25 -50.5 q-41 -53 -110 -53q-83 0 -127 84q-115 -88 -232 -88q-143 0 -240.5 101t-97.5 249zM344 344q0 -58 39 -97.5t98 -39.5q57 0 94 38t37 95q0 60 -38.5 100.5t-96.5 40.5q-55 0 -94 -40t-39 -97zM383 1194q0 47 37 84l100 104q38 41 86 41q50 0 84.5 -34.5t34.5 -83.5 q0 -43 -33 -76l-112 -119q-29 -33 -80 -33q-47 0 -82 35t-35 82z" />
<glyph unicode="&#xe2;" horiz-adv-x="1007" d="M53 332q0 152 103 255t254 103q94 0 202 -57q0 75 -27.5 106t-92.5 31q-32 0 -74 -10l-66 -19q-52 -16 -84 -16q-47 0 -76.5 30.5t-29.5 78.5q0 79 90 127.5t235 48.5q100 0 184 -28.5t136 -80.5q46 -47 65.5 -121t18.5 -192v-72v-311v-37q0 -53 -6 -78.5t-25 -50.5 q-41 -53 -110 -53q-83 0 -127 84q-115 -88 -232 -88q-143 0 -240.5 101t-97.5 249zM246 1196q0 47 26 70l154 141q11 9 33 16t41 7q47 0 78 -23l139 -121q41 -35 41 -92q0 -48 -33 -81.5t-82 -33.5q-38 0 -68 23l-71 59l-70 -59q-23 -23 -72 -23q-48 0 -82 34t-34 83z M344 344q0 -58 39 -97.5t98 -39.5q57 0 94 38t37 95q0 60 -38.5 100.5t-96.5 40.5q-55 0 -94 -40t-39 -97z" />
<glyph unicode="&#xe3;" horiz-adv-x="1007" d="M53 332q0 152 103 255t254 103q94 0 202 -57q0 75 -27.5 106t-92.5 31q-32 0 -74 -10l-66 -19q-52 -16 -84 -16q-47 0 -76.5 30.5t-29.5 78.5q0 79 90 127.5t235 48.5q100 0 184 -28.5t136 -80.5q46 -47 65.5 -121t18.5 -192v-72v-311v-37q0 -53 -6 -78.5t-25 -50.5 q-41 -53 -110 -53q-83 0 -127 84q-115 -88 -232 -88q-143 0 -240.5 101t-97.5 249zM193 1192q0 72 59.5 128t136.5 56q49 0 117 -30q58 -27 94 -27q29 0 45 8l41 23q23 10 39 10q35 0 62.5 -28.5t27.5 -65.5q0 -74 -63 -130.5t-146 -56.5q-42 0 -106 29q-59 29 -99 29 q-27 0 -43 -11l-39 -20q-20 -10 -38 -10q-37 0 -62.5 28t-25.5 68zM344 344q0 -58 39 -97.5t98 -39.5q57 0 94 38t37 95q0 60 -38.5 100.5t-96.5 40.5q-55 0 -94 -40t-39 -97z" />
<glyph unicode="&#xe4;" horiz-adv-x="1007" d="M53 332q0 152 103 255t254 103q94 0 202 -57q0 75 -27.5 106t-92.5 31q-32 0 -74 -10l-66 -19q-52 -16 -84 -16q-47 0 -76.5 30.5t-29.5 78.5q0 79 90 127.5t235 48.5q100 0 184 -28.5t136 -80.5q46 -47 65.5 -121t18.5 -192v-72v-311v-37q0 -53 -6 -78.5t-25 -50.5 q-41 -53 -110 -53q-83 0 -127 84q-115 -88 -232 -88q-143 0 -240.5 101t-97.5 249zM152 1231q0 66 46.5 112t112.5 46q64 0 109 -45.5t45 -108.5q0 -65 -45.5 -110.5t-110.5 -45.5q-64 0 -110.5 45t-46.5 107zM344 344q0 -58 39 -97.5t98 -39.5q57 0 94 38t37 95 q0 60 -38.5 100.5t-96.5 40.5q-55 0 -94 -40t-39 -97zM541 1231q0 66 46.5 112t112.5 46q64 0 109 -45.5t45 -108.5q0 -65 -46 -110.5t-110 -45.5t-110.5 45t-46.5 107z" />
<glyph unicode="&#xe5;" horiz-adv-x="1007" d="M53 332q0 152 103 255t254 103q94 0 202 -57q0 75 -27.5 106t-92.5 31q-32 0 -74 -10l-66 -19q-52 -16 -84 -16q-47 0 -76.5 30.5t-29.5 78.5q0 79 90 127.5t235 48.5q100 0 184 -28.5t136 -80.5q46 -47 65.5 -121t18.5 -192v-72v-311v-37q0 -53 -6 -78.5t-25 -50.5 q-41 -53 -110 -53q-83 0 -127 84q-115 -88 -232 -88q-143 0 -240.5 101t-97.5 249zM315 1251q0 79 55.5 135t135.5 56q78 0 133 -55.5t55 -133.5q0 -76 -56 -131t-134 -55q-77 0 -133 54.5t-56 129.5zM344 344q0 -58 39 -97.5t98 -39.5q57 0 94 38t37 95q0 60 -38.5 100.5 t-96.5 40.5q-55 0 -94 -40t-39 -97zM412 1251q0 -36 27 -62t65 -26t66 26.5t28 63.5q0 38 -27 65.5t-65 27.5q-40 0 -67 -27.5t-27 -67.5z" />
<glyph unicode="&#xe6;" horiz-adv-x="1533" d="M55 319q0 148 103.5 251.5t251.5 103.5q51 0 87 -10.5t107 -45.5q0 64 -20 93q-13 20 -40 32.5t-55 12.5q-35 0 -118 -25q-63 -21 -77.5 -25t-35.5 -4q-44 0 -74 31.5t-30 77.5q0 78 92 128t237 50q170 0 293 -92q119 92 285 92q172 0 303 -106.5t131 -245.5 q0 -43 -22 -75.5t-62 -47.5l-491 -199q59 -59 153 -59q75 0 127 37l31 20q39 27 80 27q56 0 95.5 -40t39.5 -97q0 -56 -53 -108t-140 -83.5t-180 -31.5q-99 0 -192 36.5t-160 102.5q-77 -75 -148.5 -107t-166.5 -32q-180 0 -271 116q-80 100 -80 223zM344 330 q0 -54 38.5 -91.5t94.5 -37.5q54 0 93.5 38.5t39.5 92.5q0 57 -38.5 97t-92.5 40q-58 0 -96.5 -40t-38.5 -99zM844 518l352 141q-49 58 -129 58q-83 0 -141.5 -52t-81.5 -147z" />
<glyph unicode="&#xe7;" horiz-adv-x="1001" d="M55 487q0 136 67.5 252t183 184t251.5 68q89 0 176.5 -32t155.5 -89q61 -50 61 -114q0 -59 -40 -98.5t-101 -39.5q-23 0 -39 7t-45 28q-45 35 -79.5 49.5t-76.5 14.5q-100 0 -168.5 -67.5t-68.5 -164.5t68.5 -164t166.5 -67q45 0 73 12.5t99 63.5q40 30 86 30 q56 0 96 -40t40 -97q0 -75 -93 -143.5t-225 -91.5q35 -38 35 -86q0 -39 -31 -78l-112 -117q-30 -33 -82 -33q-47 0 -81 35t-34 82q0 49 35 84l108 113q-188 34 -307 173.5t-119 325.5z" />
<glyph unicode="&#xe8;" horiz-adv-x="1024" d="M55 487q0 100 40.5 193t108 160.5t160 108t191.5 40.5q108 0 207.5 -47.5t160 -126.5t60.5 -166q0 -44 -26 -74.5t-87 -58.5l-454 -201q63 -55 147 -55q82 0 158 57q44 33 86 33q58 0 97.5 -39t39.5 -96q0 -83 -102 -152q-119 -83 -279 -83q-135 0 -252 69t-186.5 186 t-69.5 252zM287 1307q0 49 35 82.5t86 33.5q46 0 84 -41l100 -104q37 -37 37 -84t-35 -82t-82 -35q-51 0 -80 33l-113 119q-32 32 -32 78zM336 516l348 150q-38 57 -121 57q-89 0 -154 -59.5t-73 -147.5z" />
<glyph unicode="&#xe9;" horiz-adv-x="1024" d="M55 487q0 100 40.5 193t108 160.5t160 108t191.5 40.5q108 0 207.5 -47.5t160 -126.5t60.5 -166q0 -44 -26 -74.5t-87 -58.5l-454 -201q63 -55 147 -55q82 0 158 57q44 33 86 33q58 0 97.5 -39t39.5 -96q0 -83 -102 -152q-119 -83 -279 -83q-135 0 -252 69t-186.5 186 t-69.5 252zM336 516l348 150q-38 57 -121 57q-89 0 -154 -59.5t-73 -147.5zM436 1194q0 47 37 84l100 104q38 41 86 41q50 0 84.5 -34.5t34.5 -83.5q0 -43 -33 -76l-112 -119q-29 -33 -80 -33q-47 0 -82 35t-35 82z" />
<glyph unicode="&#xea;" horiz-adv-x="1024" d="M55 487q0 100 40.5 193t108 160.5t160 108t191.5 40.5q108 0 207.5 -47.5t160 -126.5t60.5 -166q0 -44 -26 -74.5t-87 -58.5l-454 -201q63 -55 147 -55q82 0 158 57q44 33 86 33q58 0 97.5 -39t39.5 -96q0 -83 -102 -152q-119 -83 -279 -83q-135 0 -252 69t-186.5 186 t-69.5 252zM254 1196q0 46 27 70l153 141q11 9 33 16t41 7q47 0 78 -23l139 -121q41 -35 41 -92q0 -48 -33 -81.5t-82 -33.5q-37 0 -67 23l-72 59l-70 -59q-23 -23 -71 -23t-82.5 34t-34.5 83zM336 516l348 150q-38 57 -121 57q-89 0 -154 -59.5t-73 -147.5z" />
<glyph unicode="&#xeb;" horiz-adv-x="1024" d="M55 487q0 100 40.5 193t108 160.5t160 108t191.5 40.5q108 0 207.5 -47.5t160 -126.5t60.5 -166q0 -44 -26 -74.5t-87 -58.5l-454 -201q63 -55 147 -55q82 0 158 57q44 33 86 33q58 0 97.5 -39t39.5 -96q0 -83 -102 -152q-119 -83 -279 -83q-135 0 -252 69t-186.5 186 t-69.5 252zM160 1231q0 66 46.5 112t112.5 46q64 0 109 -45.5t45 -108.5q0 -65 -45.5 -110.5t-110.5 -45.5q-64 0 -110.5 45t-46.5 107zM336 516l348 150q-38 57 -121 57q-89 0 -154 -59.5t-73 -147.5zM549 1231q0 66 47 112t113 46q64 0 108.5 -45.5t44.5 -108.5 q0 -65 -45.5 -110.5t-109.5 -45.5t-111 45t-47 107z" />
<glyph unicode="&#xec;" horiz-adv-x="518" d="M123 137v31v633v30q2 69 39 110.5t98 41.5t98 -42t37 -110v-30v-633v-31q-2 -69 -38 -110t-97 -41t-99 41.5t-38 109.5zM123 1307q0 49 35 82.5t86 33.5q46 0 84 -41l100 -104q37 -37 37 -84t-35 -82t-82 -35q-51 0 -80 33l-112 119q-33 33 -33 78z" />
<glyph unicode="&#xed;" horiz-adv-x="518" d="M123 137v31v633v30q2 69 39 110.5t98 41.5t98 -42t37 -110v-30v-633v-31q-2 -69 -38 -110t-97 -41t-99 41.5t-38 109.5zM123 1194q0 47 37 84l100 104q38 41 86 41q50 0 84.5 -34.5t34.5 -83.5q0 -43 -33 -76l-113 -119q-29 -33 -79 -33q-47 0 -82 35t-35 82z" />
<glyph unicode="&#xee;" horiz-adv-x="518" d="M121 1196q0 47 26 70l154 141q11 9 33 16t41 7q47 0 78 -23l139 -121q41 -35 41 -92q0 -48 -33 -81.5t-82 -33.5q-37 0 -67 23l-72 59l-70 -59q-23 -23 -71 -23t-82.5 34t-34.5 83zM123 137v31v633v30q2 69 39 110.5t98 41.5t98 -42t37 -110v-30v-633v-31 q-2 -69 -38 -110t-97 -41t-99 41.5t-38 109.5z" />
<glyph unicode="&#xef;" horiz-adv-x="518" d="M121 1231q0 66 47 112t113 46q64 0 108.5 -45.5t44.5 -108.5q0 -65 -45.5 -110.5t-109.5 -45.5t-111 45t-47 107zM123 137v31v633v30q2 69 39 110.5t98 41.5t98 -42t37 -110v-30v-633v-31q-2 -69 -38 -110t-97 -41t-99 41.5t-38 109.5zM510 1231q0 66 47 112t113 46 q64 0 108.5 -45.5t44.5 -108.5q0 -65 -45.5 -110.5t-109.5 -45.5t-111 45t-47 107z" />
<glyph unicode="&#xf1;" horiz-adv-x="1112" d="M117 137v31v346q0 100 22.5 173.5t73.5 137.5q62 77 152 120.5t188 43.5q114 0 218 -58.5t165 -158.5q59 -95 59 -266v-338v-31q-1 -69 -38 -110t-97 -41q-61 0 -99 41.5t-38 109.5v31v313q0 97 -18 142q-19 41 -61 67.5t-89 26.5q-70 0 -118 -51t-48 -125v-52v-321v-31 q-2 -69 -39 -110t-98 -41q-60 0 -97.5 42t-37.5 109zM246 1192q0 72 59.5 128t136.5 56q49 0 117 -30q59 -27 94 -27q29 0 45 8l41 23q23 10 39 10q35 0 62.5 -28.5t27.5 -65.5q0 -74 -63 -130.5t-146 -56.5q-42 0 -106 29q-59 29 -98 29q-27 0 -43 -11l-39 -20 q-20 -10 -39 -10q-37 0 -62.5 28t-25.5 68z" />
<glyph unicode="&#xf2;" horiz-adv-x="1128" d="M55 475q0 107 40 202t108 163.5t163 108.5t201 40q138 0 254.5 -67.5t184 -184.5t67.5 -256q0 -135 -68.5 -250.5t-185.5 -183t-254 -67.5t-254.5 67t-186.5 181t-69 247zM313 1307q0 49 35 82.5t86 33.5q46 0 84 -41l100 -104q37 -37 37 -84t-34.5 -82t-81.5 -35 q-51 0 -80 33l-113 119q-33 33 -33 78zM334 479q0 -91 68 -157t163 -66q96 0 164 67t68 162q0 97 -67.5 164.5t-162.5 67.5q-100 0 -166.5 -68.5t-66.5 -169.5z" />
<glyph unicode="&#xf3;" horiz-adv-x="1128" d="M55 475q0 107 40 202t108 163.5t163 108.5t201 40q138 0 254.5 -67.5t184 -184.5t67.5 -256q0 -135 -68.5 -250.5t-185.5 -183t-254 -67.5t-254.5 67t-186.5 181t-69 247zM334 479q0 -91 68 -157t163 -66q96 0 164 67t68 162q0 97 -67.5 164.5t-162.5 67.5 q-100 0 -166.5 -68.5t-66.5 -169.5zM436 1194q0 47 37 84l100 104q38 41 86 41q50 0 84.5 -34.5t34.5 -83.5q0 -43 -33 -76l-112 -119q-29 -33 -80 -33q-47 0 -82 35t-35 82z" />
<glyph unicode="&#xf4;" horiz-adv-x="1128" d="M55 475q0 107 40 202t108 163.5t163 108.5t201 40q138 0 254.5 -67.5t184 -184.5t67.5 -256q0 -135 -68.5 -250.5t-185.5 -183t-254 -67.5t-254.5 67t-186.5 181t-69 247zM305 1196q0 46 27 70l153 141q11 9 33 16t41 7q47 0 78 -23l139 -121q41 -35 41 -92 q0 -48 -33 -81.5t-82 -33.5q-37 0 -67 23l-72 59l-69 -59q-23 -23 -72 -23q-48 0 -82.5 34t-34.5 83zM334 479q0 -91 68 -157t163 -66q96 0 164 67t68 162q0 97 -67.5 164.5t-162.5 67.5q-100 0 -166.5 -68.5t-66.5 -169.5z" />
<glyph unicode="&#xf5;" horiz-adv-x="1128" d="M55 475q0 107 40 202t108 163.5t163 108.5t201 40q138 0 254.5 -67.5t184 -184.5t67.5 -256q0 -135 -68.5 -250.5t-185.5 -183t-254 -67.5t-254.5 67t-186.5 181t-69 247zM254 1192q0 72 60 128t137 56q48 0 116 -30q58 -27 95 -27q29 0 45 8l41 23q23 10 38 10 q35 0 63 -28.5t28 -65.5q0 -74 -63 -130.5t-146 -56.5q-43 0 -107 29q-59 29 -98 29q-27 0 -43 -11l-39 -20q-20 -10 -39 -10q-37 0 -62.5 28t-25.5 68zM334 479q0 -91 68 -157t163 -66q96 0 164 67t68 162q0 97 -67.5 164.5t-162.5 67.5q-100 0 -166.5 -68.5t-66.5 -169.5z " />
<glyph unicode="&#xf6;" horiz-adv-x="1128" d="M55 475q0 107 40 202t108 163.5t163 108.5t201 40q138 0 254.5 -67.5t184 -184.5t67.5 -256q0 -135 -68.5 -250.5t-185.5 -183t-254 -67.5t-254.5 67t-186.5 181t-69 247zM211 1231q0 66 47 112t113 46q64 0 108.5 -45.5t44.5 -108.5q0 -65 -45.5 -110.5t-109.5 -45.5 t-111 45t-47 107zM334 479q0 -91 68 -157t163 -66q96 0 164 67t68 162q0 97 -67.5 164.5t-162.5 67.5q-100 0 -166.5 -68.5t-66.5 -169.5zM600 1231q0 66 47 112t113 46q64 0 108.5 -45.5t44.5 -108.5q0 -65 -45.5 -110.5t-109.5 -45.5t-111 45t-47 107z" />
<glyph unicode="&#xf7;" d="M68 0v1366h684v-1366h-684zM82 14h655v1338h-655v-1338z" />
<glyph unicode="&#xf8;" horiz-adv-x="1146" d="M53 92q0 55 88 137q-75 107 -75 258q0 135 68.5 250.5t185 183.5t251.5 68q155 0 267 -71q68 86 139 86q46 0 82.5 -37.5t36.5 -83.5q0 -29 -13 -54t-47 -59l-24 -25q71 -122 71 -262q0 -133 -68.5 -249t-184 -185t-248.5 -69q-78 0 -151.5 20t-115.5 55q-45 -52 -73 -70 t-66 -18q-50 0 -86.5 37t-36.5 88zM328 475q0 -18 8 -49l303 293q-22 14 -66 14q-103 0 -174 -74.5t-71 -183.5zM516 256q36 -16 66 -16q97 0 168 76.5t71 179.5q0 26 -6 49z" />
<glyph unicode="&#xf9;" horiz-adv-x="1112" d="M117 463v338v30q2 69 38 110.5t97 41.5t99 -42t38 -110v-30v-314q0 -94 19 -139q19 -42 60.5 -69t88.5 -27q70 0 118 51t48 125v51v322v30q2 69 39 110.5t98 41.5q60 0 97.5 -42t37.5 -110v-30v-344q0 -193 -96 -312q-61 -78 -151.5 -121.5t-188.5 -43.5 q-114 0 -218 58.5t-165 158.5q-59 95 -59 266zM313 1307q0 49 35 82.5t86 33.5q46 0 84 -41l100 -104q37 -37 37 -84t-34.5 -82t-81.5 -35q-51 0 -80 33l-113 119q-33 33 -33 78z" />
<glyph unicode="&#xfa;" horiz-adv-x="1112" d="M117 463v338v30q2 69 38 110.5t97 41.5t99 -42t38 -110v-30v-314q0 -94 19 -139q19 -42 60.5 -69t88.5 -27q70 0 118 51t48 125v51v322v30q2 69 39 110.5t98 41.5q60 0 97.5 -42t37.5 -110v-30v-344q0 -193 -96 -312q-61 -78 -151.5 -121.5t-188.5 -43.5 q-114 0 -218 58.5t-165 158.5q-59 95 -59 266zM451 1194q0 48 36 84l101 104q38 41 86 41q50 0 84.5 -34.5t34.5 -83.5q0 -43 -33 -76l-113 -119q-29 -33 -80 -33q-47 0 -81.5 35t-34.5 82z" />
<glyph unicode="&#xfb;" horiz-adv-x="1112" d="M117 463v338v30q2 69 38 110.5t97 41.5t99 -42t38 -110v-30v-314q0 -94 19 -139q19 -42 60.5 -69t88.5 -27q70 0 118 51t48 125v51v322v30q2 69 39 110.5t98 41.5q60 0 97.5 -42t37.5 -110v-30v-344q0 -193 -96 -312q-61 -78 -151.5 -121.5t-188.5 -43.5 q-114 0 -218 58.5t-165 158.5q-59 95 -59 266zM297 1196q0 46 27 70l153 141q11 9 33 16t41 7q47 0 78 -23l139 -121q41 -35 41 -92q0 -48 -33 -81.5t-82 -33.5q-37 0 -67 23l-72 59l-70 -59q-23 -23 -71 -23t-82.5 34t-34.5 83z" />
<glyph unicode="&#xfc;" horiz-adv-x="1112" d="M117 463v338v30q2 69 38 110.5t97 41.5t99 -42t38 -110v-30v-314q0 -94 19 -139q19 -42 60.5 -69t88.5 -27q70 0 118 51t48 125v51v322v30q2 69 39 110.5t98 41.5q60 0 97.5 -42t37.5 -110v-30v-344q0 -193 -96 -312q-61 -78 -151.5 -121.5t-188.5 -43.5 q-114 0 -218 58.5t-165 158.5q-59 95 -59 266zM203 1231q0 66 46.5 112t112.5 46q64 0 109 -45.5t45 -108.5q0 -65 -46 -110.5t-110 -45.5t-110.5 45t-46.5 107zM592 1231q0 66 47 112t113 46q64 0 108.5 -45.5t44.5 -108.5q0 -65 -45.5 -110.5t-109.5 -45.5t-111 45 t-47 107z" />
<glyph unicode="&#xff;" horiz-adv-x="1003" d="M14 -158q0 54 36 93.5t85 39.5q31 0 58 -8l38 -10q21 -6 41 -6q49 0 80 82l29 73l-311 639l-15 27q-20 48 -20 82q0 52 41.5 90.5t95.5 38.5q88 0 131 -94l12 -27l201 -444l184 434l13 31q46 100 137 100q56 0 98.5 -40.5t42.5 -94.5q0 -42 -33 -109l-391 -823 q-44 -92 -82 -141q-40 -51 -102 -81t-127 -30q-98 0 -170 53t-72 125zM154 1229q0 66 46.5 111.5t112.5 45.5q64 0 109 -45t45 -108q0 -65 -45.5 -110.5t-110.5 -45.5q-64 0 -110.5 45t-46.5 107zM543 1229q0 66 46.5 111.5t112.5 45.5q64 0 109 -45t45 -108 q0 -65 -46 -110.5t-110 -45.5t-110.5 45t-46.5 107z" />
<glyph unicode="&#x152;" horiz-adv-x="1886" d="M61 684q0 194 94.5 355t259 254t361.5 93q129 0 238 -53q26 20 47 26.5t55 6.5h39h498q76 0 121 -20q31 -13 51 -49t20 -76q0 -38 -21 -74.5t-50 -50.5q-40 -21 -119 -21h-402v-252h314h32q66 -2 105 -36.5t39 -92.5q0 -60 -39.5 -95.5t-104.5 -35.5h-30h-316v-280h414 q83 0 121 -17q31 -13 51.5 -49t20.5 -76q0 -64 -43.5 -103.5t-114.5 -37.5h-33h-510h-43q-53 -2 -102 23q-133 -43 -246 -43q-144 0 -275 55.5t-225.5 150t-150.5 225t-56 273.5zM375 680q0 -163 116.5 -278t282.5 -115q87 0 166 39v704q-79 43 -166 43q-166 0 -282.5 -115 t-116.5 -278z" />
<glyph unicode="&#x153;" horiz-adv-x="1757" d="M55 483q0 138 68 254.5t185 184t255 67.5q225 0 371 -162q57 75 154.5 118.5t205.5 43.5q97 0 185 -37t151 -106q38 -41 62 -95t24 -98q0 -50 -24.5 -80.5t-85.5 -58.5l-451 -201q57 -57 150 -57q78 0 153 57q40 33 88 33q57 0 97 -39t40 -96q0 -42 -24.5 -76.5 t-79.5 -71.5q-55 -38 -129 -60.5t-145 -22.5q-106 0 -213 46t-158 113q-60 -72 -161 -115.5t-208 -43.5q-138 0 -255.5 67.5t-186 183.5t-68.5 252zM332 479q0 -92 69 -158.5t164 -66.5t163.5 67.5t68.5 161.5q0 97 -67.5 164.5t-164.5 67.5q-98 0 -165.5 -68t-67.5 -168z M1073 514l348 150q-41 55 -123 55q-88 0 -156 -61.5t-69 -143.5z" />
<glyph unicode="&#x178;" horiz-adv-x="1181" d="M27 1227q0 62 46.5 107.5t110.5 45.5q78 0 138 -82l18 -28l250 -361l250 361l20 28q61 82 137 82q63 0 110.5 -46t47.5 -107q0 -52 -39 -107l-18 -28l-350 -508v-387v-35q-2 -80 -44.5 -128t-111.5 -48q-70 0 -114 49t-44 127v35v387l-350 508q-34 52 -45.5 78.5 t-11.5 56.5zM225 1610q0 66 47 111.5t113 45.5q64 0 109 -45t45 -108q0 -64 -45.5 -110t-110.5 -46q-64 0 -111 45t-47 107zM614 1610q0 66 47 111.5t113 45.5q64 0 109 -45t45 -108q0 -64 -46 -110t-110 -46t-111 45t-47 107z" />
<glyph unicode="&#x2c6;" horiz-adv-x="782" d="M133 1196q0 46 27 70l153 141q11 9 33 16t41 7q47 0 78 -23l139 -121q41 -35 41 -92q0 -48 -33 -81.5t-82 -33.5q-37 0 -67 23l-72 59l-69 -59q-23 -23 -72 -23q-48 0 -82.5 34t-34.5 83z" />
<glyph unicode="&#x2dc;" horiz-adv-x="897" d="M137 1192q0 72 60 128t137 56q49 0 117 -30q59 -27 94 -27q29 0 45 8l41 23q23 10 39 10q35 0 62.5 -28.5t27.5 -65.5q0 -74 -63 -130.5t-146 -56.5q-43 0 -107 29q-59 29 -98 29q-26 0 -43 -11l-39 -20q-20 -10 -39 -10q-37 0 -62.5 28t-25.5 68z" />
<glyph unicode="&#x2000;" horiz-adv-x="912" />
<glyph unicode="&#x2001;" horiz-adv-x="1825" />
<glyph unicode="&#x2002;" horiz-adv-x="912" />
<glyph unicode="&#x2003;" horiz-adv-x="1825" />
<glyph unicode="&#x2004;" horiz-adv-x="608" />
<glyph unicode="&#x2005;" horiz-adv-x="456" />
<glyph unicode="&#x2006;" horiz-adv-x="304" />
<glyph unicode="&#x2007;" horiz-adv-x="304" />
<glyph unicode="&#x2008;" horiz-adv-x="228" />
<glyph unicode="&#x2009;" horiz-adv-x="365" />
<glyph unicode="&#x200a;" horiz-adv-x="101" />
<glyph unicode="&#x2010;" horiz-adv-x="751" d="M137 541q0 61 42 99t110 38h30h111h31q69 -1 110 -38t41 -97q0 -61 -41.5 -99t-109.5 -38h-17h-125h-18q-77 0 -120.5 36t-43.5 99z" />
<glyph unicode="&#x2011;" horiz-adv-x="751" d="M137 541q0 61 42 99t110 38h30h111h31q69 -1 110 -38t41 -97q0 -61 -41.5 -99t-109.5 -38h-17h-125h-18q-77 0 -120.5 36t-43.5 99z" />
<glyph unicode="&#x2012;" horiz-adv-x="751" d="M137 541q0 61 42 99t110 38h30h111h31q69 -1 110 -38t41 -97q0 -61 -41.5 -99t-109.5 -38h-17h-125h-18q-77 0 -120.5 36t-43.5 99z" />
<glyph unicode="&#x2013;" horiz-adv-x="1155" d="M137 541q0 61 42 99t110 38h30h517h30q69 -2 110.5 -38.5t41.5 -96.5q0 -61 -42 -99t-110 -38h-16h-531h-18q-77 0 -120.5 36t-43.5 99z" />
<glyph unicode="&#x2014;" horiz-adv-x="2320" d="M137 541q0 61 42 99t110 38h30h1684h31q69 -1 110 -38t41 -97q0 -61 -41.5 -99t-109.5 -38h-19h-1696h-18q-77 0 -120.5 36t-43.5 99z" />
<glyph unicode="&#x2018;" horiz-adv-x="567" d="M123 1067q0 33 18 88l62 160q15 43 34 61.5t48 18.5t53 -23t24 -49q0 -18 -16 -61l-12 -37l10 -6q100 -49 100 -148q0 -66 -47.5 -114t-113.5 -48t-113 46.5t-47 111.5z" />
<glyph unicode="&#x2019;" horiz-adv-x="567" d="M123 1231q0 66 48 114t114 48t112.5 -46.5t46.5 -111.5q0 -35 -20 -88l-59 -160q-15 -43 -34 -61.5t-48 -18.5t-53.5 23t-24.5 49q0 25 16 61l12 37l-10 6q-100 49 -100 148z" />
<glyph unicode="&#x201a;" d="M68 0v1366h684v-1366h-684zM82 14h655v1338h-655v-1338z" />
<glyph unicode="&#x201c;" horiz-adv-x="970" d="M123 1067q0 33 18 88l62 160q15 43 34 61.5t48 18.5t53 -23t24 -49q0 -18 -16 -61l-12 -37l10 -6q100 -49 100 -148q0 -66 -47.5 -114t-113.5 -48t-113 46.5t-47 111.5zM526 1067q0 29 19 88l59 160q18 43 36.5 61.5t47.5 18.5t53.5 -23t24.5 -49q0 -18 -16 -61l-15 -37 l13 -6q100 -49 100 -148q0 -66 -48 -114t-114 -48t-113 46.5t-47 111.5z" />
<glyph unicode="&#x201d;" horiz-adv-x="970" d="M123 1231q0 66 48 114t114 48t112.5 -46.5t46.5 -111.5q0 -35 -20 -88l-59 -160q-15 -43 -34 -61.5t-48 -18.5t-53.5 23t-24.5 49q0 25 16 61l12 37l-10 6q-100 49 -100 148zM526 1231q0 66 47 114t113 48t114 -47t48 -111q0 -33 -21 -88l-59 -160q-15 -43 -34 -61.5 t-50 -18.5q-29 0 -52.5 22.5t-23.5 49.5q0 21 15 61l14 37l-10 6q-101 48 -101 148z" />
<glyph unicode="&#x201e;" horiz-adv-x="970" d="M123 143q0 66 48 115t114 49t112.5 -47t46.5 -113q0 -35 -20 -88l-59 -159q-15 -42 -34 -60t-48 -18t-53.5 22t-24.5 50q0 22 16 61l12 35l-10 6q-100 49 -100 147zM526 143q0 66 47 115t113 49t114 -47t48 -113q0 -33 -21 -88l-59 -159q-15 -43 -34 -60.5t-50 -17.5 q-29 0 -52.5 22t-23.5 50q0 18 15 61l14 35l-10 6q-101 48 -101 147z" />
<glyph unicode="&#x2022;" horiz-adv-x="927" d="M109 682q0 148 104 252t252 104q146 0 250 -104t104 -252q0 -146 -104 -250t-250 -104q-148 0 -252 104t-104 250z" />
<glyph unicode="&#x2026;" horiz-adv-x="2048" d="M164 158q0 73 52 124.5t126 51.5t125 -51t51 -125t-51.5 -126t-124.5 -52q-74 0 -126 52t-52 126zM848 158q0 74 51 125t125 51t126 -51.5t52 -124.5q0 -74 -52 -126t-126 -52q-73 0 -124.5 52t-51.5 126zM1530 158q0 74 51 125t125 51t126 -51.5t52 -124.5 q0 -74 -52 -126t-126 -52q-73 0 -124.5 52t-51.5 126z" />
<glyph unicode="&#x202f;" horiz-adv-x="365" />
<glyph unicode="&#x2039;" horiz-adv-x="481" d="M33 547q0 33 33 82l108 159l14 23q45 66 109 66q49 0 85 -35.5t36 -83.5q0 -34 -27 -80l-14 -23l-70 -108l70 -109l16 -22q27 -49 27 -84q0 -48 -37 -83.5t-88 -35.5q-40 0 -66 18t-61 72l-92 139l-15 23q-28 48 -28 82z" />
<glyph unicode="&#x203a;" horiz-adv-x="481" d="M59 332q0 35 29 84l14 22l70 109l-70 108l-14 23q-27 46 -27 80q0 47 37 83t86 36q64 0 109 -66l14 -23l109 -159q30 -45 30 -82q0 -38 -26 -82l-14 -23l-95 -139q-35 -53 -60.5 -71.5t-64.5 -18.5q-51 0 -89 36t-38 83z" />
<glyph unicode="&#x205f;" horiz-adv-x="456" />
<glyph unicode="&#x2122;" d="M68 0v1366h684v-1366h-684zM82 14h655v1338h-655v-1338z" />
<glyph unicode="&#xe000;" horiz-adv-x="983" d="M0 0v983h983v-983h-983z" />
<glyph unicode="&#xfb01;" horiz-adv-x="1099" d="M6 846q0 55 37.5 89t99.5 34h9v24q3 114 15 166t46 98q35 49 91.5 79t113.5 30q82 0 131 -50t49 -134q0 -60 -23.5 -100t-58.5 -40q-7 0 -33 11l-12 6q-6 4 -16 4q-17 0 -24 -20t-7 -74h377q75 0 110 -17q68 -36 68 -135v-31v-618v-31q-2 -69 -39 -110t-98 -41 q-60 0 -97.5 42t-37.5 109v31v555h-283v-555v-31q-2 -69 -39 -110t-98 -41t-98 41.5t-37 109.5v31v555q-146 9 -146 123zM676 1202q0 70 48.5 118t119.5 48q66 0 114 -47.5t48 -114.5t-48.5 -114.5t-117.5 -47.5q-66 0 -115 47t-49 111z" />
<glyph unicode="&#xfb02;" horiz-adv-x="1099" d="M6 846q0 55 37.5 89t99.5 34h7l2 24q3 114 15 166t46 98q35 49 91.5 79t113.5 30q82 0 131 -50t49 -134q0 -60 -23.5 -99t-58.5 -39q-12 0 -33 9l-12 6q-6 4 -16 4q-17 0 -24.5 -20t-8.5 -74h283v215v30q2 69 39 110.5t98 41.5q60 0 97.5 -42t37.5 -110v-18v-1028v-31 q-1 -69 -38 -110t-97 -41q-61 0 -99 41.5t-38 109.5v31v555h-283v-555v-31q0 -69 -36.5 -110t-98.5 -41q-61 0 -99 41.5t-38 109.5v31v555q-144 9 -144 123z" />
</font>
</defs>
</svg>
